<?xml version="1.0" encoding="utf-8" standalone="no"?>
<!DOCTYPE svg PUBLIC "-//W3C//DTD SVG 1.1//EN"
  "http://www.w3.org/Graphics/SVG/1.1/DTD/svg11.dtd">
<!-- Created with matplotlib (http://matplotlib.org/) -->
<svg height="345pt" version="1.1" viewBox="0 0 460 345" width="460pt" xmlns="http://www.w3.org/2000/svg" xmlns:xlink="http://www.w3.org/1999/xlink">
 <defs>
  <style type="text/css">
*{stroke-linecap:butt;stroke-linejoin:round;}
  </style>
 </defs>
 <g id="figure_1">
  <g id="patch_1">
   <path d="M 0 345.6 
L 460.8 345.6 
L 460.8 0 
L 0 0 
z
" style="fill:#ffffff;"/>
  </g>
  <g id="axes_1">
   <g id="patch_2">
    <path d="M 57.6 307.584 
L 414.72 307.584 
L 414.72 41.472 
L 57.6 41.472 
z
" style="fill:#ffffff;"/>
   </g>
   <g id="matplotlib.axis_1">
    <g id="xtick_1">
     <g id="line2d_1">
      <defs>
       <path d="M 0 0 
L 0 3.5 
" id="m5d9b8b73b8" style="stroke:#000000;stroke-width:0.8;"/>
      </defs>
      <g>
       <use style="stroke:#000000;stroke-width:0.8;" x="73.832727" xlink:href="#m5d9b8b73b8" y="307.584"/>
      </g>
     </g>
     <g id="text_1">
      <!-- 0 -->
      <defs>
       <path d="M 31.78125 66.40625 
Q 24.171875 66.40625 20.328125 58.90625 
Q 16.5 51.421875 16.5 36.375 
Q 16.5 21.390625 20.328125 13.890625 
Q 24.171875 6.390625 31.78125 6.390625 
Q 39.453125 6.390625 43.28125 13.890625 
Q 47.125 21.390625 47.125 36.375 
Q 47.125 51.421875 43.28125 58.90625 
Q 39.453125 66.40625 31.78125 66.40625 
z
M 31.78125 74.21875 
Q 44.046875 74.21875 50.515625 64.515625 
Q 56.984375 54.828125 56.984375 36.375 
Q 56.984375 17.96875 50.515625 8.265625 
Q 44.046875 -1.421875 31.78125 -1.421875 
Q 19.53125 -1.421875 13.0625 8.265625 
Q 6.59375 17.96875 6.59375 36.375 
Q 6.59375 54.828125 13.0625 64.515625 
Q 19.53125 74.21875 31.78125 74.21875 
z
" id="DejaVuSans-30"/>
      </defs>
      <g transform="translate(70.651477 322.182437)scale(0.1 -0.1)">
       <use xlink:href="#DejaVuSans-30"/>
      </g>
     </g>
    </g>
    <g id="xtick_2">
     <g id="line2d_2">
      <g>
       <use style="stroke:#000000;stroke-width:0.8;" x="138.893758" xlink:href="#m5d9b8b73b8" y="307.584"/>
      </g>
     </g>
     <g id="text_2">
      <!-- 100 -->
      <defs>
       <path d="M 12.40625 8.296875 
L 28.515625 8.296875 
L 28.515625 63.921875 
L 10.984375 60.40625 
L 10.984375 69.390625 
L 28.421875 72.90625 
L 38.28125 72.90625 
L 38.28125 8.296875 
L 54.390625 8.296875 
L 54.390625 0 
L 12.40625 0 
z
" id="DejaVuSans-31"/>
      </defs>
      <g transform="translate(129.350008 322.182437)scale(0.1 -0.1)">
       <use xlink:href="#DejaVuSans-31"/>
       <use x="63.623047" xlink:href="#DejaVuSans-30"/>
       <use x="127.246094" xlink:href="#DejaVuSans-30"/>
      </g>
     </g>
    </g>
    <g id="xtick_3">
     <g id="line2d_3">
      <g>
       <use style="stroke:#000000;stroke-width:0.8;" x="203.95479" xlink:href="#m5d9b8b73b8" y="307.584"/>
      </g>
     </g>
     <g id="text_3">
      <!-- 200 -->
      <defs>
       <path d="M 19.1875 8.296875 
L 53.609375 8.296875 
L 53.609375 0 
L 7.328125 0 
L 7.328125 8.296875 
Q 12.9375 14.109375 22.625 23.890625 
Q 32.328125 33.6875 34.8125 36.53125 
Q 39.546875 41.84375 41.421875 45.53125 
Q 43.3125 49.21875 43.3125 52.78125 
Q 43.3125 58.59375 39.234375 62.25 
Q 35.15625 65.921875 28.609375 65.921875 
Q 23.96875 65.921875 18.8125 64.3125 
Q 13.671875 62.703125 7.8125 59.421875 
L 7.8125 69.390625 
Q 13.765625 71.78125 18.9375 73 
Q 24.125 74.21875 28.421875 74.21875 
Q 39.75 74.21875 46.484375 68.546875 
Q 53.21875 62.890625 53.21875 53.421875 
Q 53.21875 48.921875 51.53125 44.890625 
Q 49.859375 40.875 45.40625 35.40625 
Q 44.1875 33.984375 37.640625 27.21875 
Q 31.109375 20.453125 19.1875 8.296875 
z
" id="DejaVuSans-32"/>
      </defs>
      <g transform="translate(194.41104 322.182437)scale(0.1 -0.1)">
       <use xlink:href="#DejaVuSans-32"/>
       <use x="63.623047" xlink:href="#DejaVuSans-30"/>
       <use x="127.246094" xlink:href="#DejaVuSans-30"/>
      </g>
     </g>
    </g>
    <g id="xtick_4">
     <g id="line2d_4">
      <g>
       <use style="stroke:#000000;stroke-width:0.8;" x="269.015821" xlink:href="#m5d9b8b73b8" y="307.584"/>
      </g>
     </g>
     <g id="text_4">
      <!-- 300 -->
      <defs>
       <path d="M 40.578125 39.3125 
Q 47.65625 37.796875 51.625 33 
Q 55.609375 28.21875 55.609375 21.1875 
Q 55.609375 10.40625 48.1875 4.484375 
Q 40.765625 -1.421875 27.09375 -1.421875 
Q 22.515625 -1.421875 17.65625 -0.515625 
Q 12.796875 0.390625 7.625 2.203125 
L 7.625 11.71875 
Q 11.71875 9.328125 16.59375 8.109375 
Q 21.484375 6.890625 26.8125 6.890625 
Q 36.078125 6.890625 40.9375 10.546875 
Q 45.796875 14.203125 45.796875 21.1875 
Q 45.796875 27.640625 41.28125 31.265625 
Q 36.765625 34.90625 28.71875 34.90625 
L 20.21875 34.90625 
L 20.21875 43.015625 
L 29.109375 43.015625 
Q 36.375 43.015625 40.234375 45.921875 
Q 44.09375 48.828125 44.09375 54.296875 
Q 44.09375 59.90625 40.109375 62.90625 
Q 36.140625 65.921875 28.71875 65.921875 
Q 24.65625 65.921875 20.015625 65.03125 
Q 15.375 64.15625 9.8125 62.3125 
L 9.8125 71.09375 
Q 15.4375 72.65625 20.34375 73.4375 
Q 25.25 74.21875 29.59375 74.21875 
Q 40.828125 74.21875 47.359375 69.109375 
Q 53.90625 64.015625 53.90625 55.328125 
Q 53.90625 49.265625 50.4375 45.09375 
Q 46.96875 40.921875 40.578125 39.3125 
z
" id="DejaVuSans-33"/>
      </defs>
      <g transform="translate(259.472071 322.182437)scale(0.1 -0.1)">
       <use xlink:href="#DejaVuSans-33"/>
       <use x="63.623047" xlink:href="#DejaVuSans-30"/>
       <use x="127.246094" xlink:href="#DejaVuSans-30"/>
      </g>
     </g>
    </g>
    <g id="xtick_5">
     <g id="line2d_5">
      <g>
       <use style="stroke:#000000;stroke-width:0.8;" x="334.076852" xlink:href="#m5d9b8b73b8" y="307.584"/>
      </g>
     </g>
     <g id="text_5">
      <!-- 400 -->
      <defs>
       <path d="M 37.796875 64.3125 
L 12.890625 25.390625 
L 37.796875 25.390625 
z
M 35.203125 72.90625 
L 47.609375 72.90625 
L 47.609375 25.390625 
L 58.015625 25.390625 
L 58.015625 17.1875 
L 47.609375 17.1875 
L 47.609375 0 
L 37.796875 0 
L 37.796875 17.1875 
L 4.890625 17.1875 
L 4.890625 26.703125 
z
" id="DejaVuSans-34"/>
      </defs>
      <g transform="translate(324.533102 322.182437)scale(0.1 -0.1)">
       <use xlink:href="#DejaVuSans-34"/>
       <use x="63.623047" xlink:href="#DejaVuSans-30"/>
       <use x="127.246094" xlink:href="#DejaVuSans-30"/>
      </g>
     </g>
    </g>
    <g id="xtick_6">
     <g id="line2d_6">
      <g>
       <use style="stroke:#000000;stroke-width:0.8;" x="399.137883" xlink:href="#m5d9b8b73b8" y="307.584"/>
      </g>
     </g>
     <g id="text_6">
      <!-- 500 -->
      <defs>
       <path d="M 10.796875 72.90625 
L 49.515625 72.90625 
L 49.515625 64.59375 
L 19.828125 64.59375 
L 19.828125 46.734375 
Q 21.96875 47.46875 24.109375 47.828125 
Q 26.265625 48.1875 28.421875 48.1875 
Q 40.625 48.1875 47.75 41.5 
Q 54.890625 34.8125 54.890625 23.390625 
Q 54.890625 11.625 47.5625 5.09375 
Q 40.234375 -1.421875 26.90625 -1.421875 
Q 22.3125 -1.421875 17.546875 -0.640625 
Q 12.796875 0.140625 7.71875 1.703125 
L 7.71875 11.625 
Q 12.109375 9.234375 16.796875 8.0625 
Q 21.484375 6.890625 26.703125 6.890625 
Q 35.15625 6.890625 40.078125 11.328125 
Q 45.015625 15.765625 45.015625 23.390625 
Q 45.015625 31 40.078125 35.4375 
Q 35.15625 39.890625 26.703125 39.890625 
Q 22.75 39.890625 18.8125 39.015625 
Q 14.890625 38.140625 10.796875 36.28125 
z
" id="DejaVuSans-35"/>
      </defs>
      <g transform="translate(389.594133 322.182437)scale(0.1 -0.1)">
       <use xlink:href="#DejaVuSans-35"/>
       <use x="63.623047" xlink:href="#DejaVuSans-30"/>
       <use x="127.246094" xlink:href="#DejaVuSans-30"/>
      </g>
     </g>
    </g>
    <g id="text_7">
     <!-- epoch -->
     <defs>
      <path d="M 56.203125 29.59375 
L 56.203125 25.203125 
L 14.890625 25.203125 
Q 15.484375 15.921875 20.484375 11.0625 
Q 25.484375 6.203125 34.421875 6.203125 
Q 39.59375 6.203125 44.453125 7.46875 
Q 49.3125 8.734375 54.109375 11.28125 
L 54.109375 2.78125 
Q 49.265625 0.734375 44.1875 -0.34375 
Q 39.109375 -1.421875 33.890625 -1.421875 
Q 20.796875 -1.421875 13.15625 6.1875 
Q 5.515625 13.8125 5.515625 26.8125 
Q 5.515625 40.234375 12.765625 48.109375 
Q 20.015625 56 32.328125 56 
Q 43.359375 56 49.78125 48.890625 
Q 56.203125 41.796875 56.203125 29.59375 
z
M 47.21875 32.234375 
Q 47.125 39.59375 43.09375 43.984375 
Q 39.0625 48.390625 32.421875 48.390625 
Q 24.90625 48.390625 20.390625 44.140625 
Q 15.875 39.890625 15.1875 32.171875 
z
" id="DejaVuSans-65"/>
      <path d="M 18.109375 8.203125 
L 18.109375 -20.796875 
L 9.078125 -20.796875 
L 9.078125 54.6875 
L 18.109375 54.6875 
L 18.109375 46.390625 
Q 20.953125 51.265625 25.265625 53.625 
Q 29.59375 56 35.59375 56 
Q 45.5625 56 51.78125 48.09375 
Q 58.015625 40.1875 58.015625 27.296875 
Q 58.015625 14.40625 51.78125 6.484375 
Q 45.5625 -1.421875 35.59375 -1.421875 
Q 29.59375 -1.421875 25.265625 0.953125 
Q 20.953125 3.328125 18.109375 8.203125 
z
M 48.6875 27.296875 
Q 48.6875 37.203125 44.609375 42.84375 
Q 40.53125 48.484375 33.40625 48.484375 
Q 26.265625 48.484375 22.1875 42.84375 
Q 18.109375 37.203125 18.109375 27.296875 
Q 18.109375 17.390625 22.1875 11.75 
Q 26.265625 6.109375 33.40625 6.109375 
Q 40.53125 6.109375 44.609375 11.75 
Q 48.6875 17.390625 48.6875 27.296875 
z
" id="DejaVuSans-70"/>
      <path d="M 30.609375 48.390625 
Q 23.390625 48.390625 19.1875 42.75 
Q 14.984375 37.109375 14.984375 27.296875 
Q 14.984375 17.484375 19.15625 11.84375 
Q 23.34375 6.203125 30.609375 6.203125 
Q 37.796875 6.203125 41.984375 11.859375 
Q 46.1875 17.53125 46.1875 27.296875 
Q 46.1875 37.015625 41.984375 42.703125 
Q 37.796875 48.390625 30.609375 48.390625 
z
M 30.609375 56 
Q 42.328125 56 49.015625 48.375 
Q 55.71875 40.765625 55.71875 27.296875 
Q 55.71875 13.875 49.015625 6.21875 
Q 42.328125 -1.421875 30.609375 -1.421875 
Q 18.84375 -1.421875 12.171875 6.21875 
Q 5.515625 13.875 5.515625 27.296875 
Q 5.515625 40.765625 12.171875 48.375 
Q 18.84375 56 30.609375 56 
z
" id="DejaVuSans-6f"/>
      <path d="M 48.78125 52.59375 
L 48.78125 44.1875 
Q 44.96875 46.296875 41.140625 47.34375 
Q 37.3125 48.390625 33.40625 48.390625 
Q 24.65625 48.390625 19.8125 42.84375 
Q 14.984375 37.3125 14.984375 27.296875 
Q 14.984375 17.28125 19.8125 11.734375 
Q 24.65625 6.203125 33.40625 6.203125 
Q 37.3125 6.203125 41.140625 7.25 
Q 44.96875 8.296875 48.78125 10.40625 
L 48.78125 2.09375 
Q 45.015625 0.34375 40.984375 -0.53125 
Q 36.96875 -1.421875 32.421875 -1.421875 
Q 20.0625 -1.421875 12.78125 6.34375 
Q 5.515625 14.109375 5.515625 27.296875 
Q 5.515625 40.671875 12.859375 48.328125 
Q 20.21875 56 33.015625 56 
Q 37.15625 56 41.109375 55.140625 
Q 45.0625 54.296875 48.78125 52.59375 
z
" id="DejaVuSans-63"/>
      <path d="M 54.890625 33.015625 
L 54.890625 0 
L 45.90625 0 
L 45.90625 32.71875 
Q 45.90625 40.484375 42.875 44.328125 
Q 39.84375 48.1875 33.796875 48.1875 
Q 26.515625 48.1875 22.3125 43.546875 
Q 18.109375 38.921875 18.109375 30.90625 
L 18.109375 0 
L 9.078125 0 
L 9.078125 75.984375 
L 18.109375 75.984375 
L 18.109375 46.1875 
Q 21.34375 51.125 25.703125 53.5625 
Q 30.078125 56 35.796875 56 
Q 45.21875 56 50.046875 50.171875 
Q 54.890625 44.34375 54.890625 33.015625 
z
" id="DejaVuSans-68"/>
     </defs>
     <g transform="translate(220.931875 335.860562)scale(0.1 -0.1)">
      <use xlink:href="#DejaVuSans-65"/>
      <use x="61.523438" xlink:href="#DejaVuSans-70"/>
      <use x="125" xlink:href="#DejaVuSans-6f"/>
      <use x="186.181641" xlink:href="#DejaVuSans-63"/>
      <use x="241.162109" xlink:href="#DejaVuSans-68"/>
     </g>
    </g>
   </g>
   <g id="matplotlib.axis_2">
    <g id="ytick_1">
     <g id="line2d_7">
      <defs>
       <path d="M 0 0 
L -3.5 0 
" id="ma24402354e" style="stroke:#000000;stroke-width:0.8;"/>
      </defs>
      <g>
       <use style="stroke:#000000;stroke-width:0.8;" x="57.6" xlink:href="#ma24402354e" y="299.76057"/>
      </g>
     </g>
     <g id="text_8">
      <!-- 0.955 -->
      <defs>
       <path d="M 10.6875 12.40625 
L 21 12.40625 
L 21 0 
L 10.6875 0 
z
" id="DejaVuSans-2e"/>
       <path d="M 10.984375 1.515625 
L 10.984375 10.5 
Q 14.703125 8.734375 18.5 7.8125 
Q 22.3125 6.890625 25.984375 6.890625 
Q 35.75 6.890625 40.890625 13.453125 
Q 46.046875 20.015625 46.78125 33.40625 
Q 43.953125 29.203125 39.59375 26.953125 
Q 35.25 24.703125 29.984375 24.703125 
Q 19.046875 24.703125 12.671875 31.3125 
Q 6.296875 37.9375 6.296875 49.421875 
Q 6.296875 60.640625 12.9375 67.421875 
Q 19.578125 74.21875 30.609375 74.21875 
Q 43.265625 74.21875 49.921875 64.515625 
Q 56.59375 54.828125 56.59375 36.375 
Q 56.59375 19.140625 48.40625 8.859375 
Q 40.234375 -1.421875 26.421875 -1.421875 
Q 22.703125 -1.421875 18.890625 -0.6875 
Q 15.09375 0.046875 10.984375 1.515625 
z
M 30.609375 32.421875 
Q 37.25 32.421875 41.125 36.953125 
Q 45.015625 41.5 45.015625 49.421875 
Q 45.015625 57.28125 41.125 61.84375 
Q 37.25 66.40625 30.609375 66.40625 
Q 23.96875 66.40625 20.09375 61.84375 
Q 16.21875 57.28125 16.21875 49.421875 
Q 16.21875 41.5 20.09375 36.953125 
Q 23.96875 32.421875 30.609375 32.421875 
z
" id="DejaVuSans-39"/>
      </defs>
      <g transform="translate(21.971875 303.559789)scale(0.1 -0.1)">
       <use xlink:href="#DejaVuSans-30"/>
       <use x="63.623047" xlink:href="#DejaVuSans-2e"/>
       <use x="95.410156" xlink:href="#DejaVuSans-39"/>
       <use x="159.033203" xlink:href="#DejaVuSans-35"/>
       <use x="222.65625" xlink:href="#DejaVuSans-35"/>
      </g>
     </g>
    </g>
    <g id="ytick_2">
     <g id="line2d_8">
      <g>
       <use style="stroke:#000000;stroke-width:0.8;" x="57.6" xlink:href="#ma24402354e" y="267.272634"/>
      </g>
     </g>
     <g id="text_9">
      <!-- 0.960 -->
      <defs>
       <path d="M 33.015625 40.375 
Q 26.375 40.375 22.484375 35.828125 
Q 18.609375 31.296875 18.609375 23.390625 
Q 18.609375 15.53125 22.484375 10.953125 
Q 26.375 6.390625 33.015625 6.390625 
Q 39.65625 6.390625 43.53125 10.953125 
Q 47.40625 15.53125 47.40625 23.390625 
Q 47.40625 31.296875 43.53125 35.828125 
Q 39.65625 40.375 33.015625 40.375 
z
M 52.59375 71.296875 
L 52.59375 62.3125 
Q 48.875 64.0625 45.09375 64.984375 
Q 41.3125 65.921875 37.59375 65.921875 
Q 27.828125 65.921875 22.671875 59.328125 
Q 17.53125 52.734375 16.796875 39.40625 
Q 19.671875 43.65625 24.015625 45.921875 
Q 28.375 48.1875 33.59375 48.1875 
Q 44.578125 48.1875 50.953125 41.515625 
Q 57.328125 34.859375 57.328125 23.390625 
Q 57.328125 12.15625 50.6875 5.359375 
Q 44.046875 -1.421875 33.015625 -1.421875 
Q 20.359375 -1.421875 13.671875 8.265625 
Q 6.984375 17.96875 6.984375 36.375 
Q 6.984375 53.65625 15.1875 63.9375 
Q 23.390625 74.21875 37.203125 74.21875 
Q 40.921875 74.21875 44.703125 73.484375 
Q 48.484375 72.75 52.59375 71.296875 
z
" id="DejaVuSans-36"/>
      </defs>
      <g transform="translate(21.971875 271.071853)scale(0.1 -0.1)">
       <use xlink:href="#DejaVuSans-30"/>
       <use x="63.623047" xlink:href="#DejaVuSans-2e"/>
       <use x="95.410156" xlink:href="#DejaVuSans-39"/>
       <use x="159.033203" xlink:href="#DejaVuSans-36"/>
       <use x="222.65625" xlink:href="#DejaVuSans-30"/>
      </g>
     </g>
    </g>
    <g id="ytick_3">
     <g id="line2d_9">
      <g>
       <use style="stroke:#000000;stroke-width:0.8;" x="57.6" xlink:href="#ma24402354e" y="234.784698"/>
      </g>
     </g>
     <g id="text_10">
      <!-- 0.965 -->
      <g transform="translate(21.971875 238.583916)scale(0.1 -0.1)">
       <use xlink:href="#DejaVuSans-30"/>
       <use x="63.623047" xlink:href="#DejaVuSans-2e"/>
       <use x="95.410156" xlink:href="#DejaVuSans-39"/>
       <use x="159.033203" xlink:href="#DejaVuSans-36"/>
       <use x="222.65625" xlink:href="#DejaVuSans-35"/>
      </g>
     </g>
    </g>
    <g id="ytick_4">
     <g id="line2d_10">
      <g>
       <use style="stroke:#000000;stroke-width:0.8;" x="57.6" xlink:href="#ma24402354e" y="202.296761"/>
      </g>
     </g>
     <g id="text_11">
      <!-- 0.970 -->
      <defs>
       <path d="M 8.203125 72.90625 
L 55.078125 72.90625 
L 55.078125 68.703125 
L 28.609375 0 
L 18.3125 0 
L 43.21875 64.59375 
L 8.203125 64.59375 
z
" id="DejaVuSans-37"/>
      </defs>
      <g transform="translate(21.971875 206.09598)scale(0.1 -0.1)">
       <use xlink:href="#DejaVuSans-30"/>
       <use x="63.623047" xlink:href="#DejaVuSans-2e"/>
       <use x="95.410156" xlink:href="#DejaVuSans-39"/>
       <use x="159.033203" xlink:href="#DejaVuSans-37"/>
       <use x="222.65625" xlink:href="#DejaVuSans-30"/>
      </g>
     </g>
    </g>
    <g id="ytick_5">
     <g id="line2d_11">
      <g>
       <use style="stroke:#000000;stroke-width:0.8;" x="57.6" xlink:href="#ma24402354e" y="169.808825"/>
      </g>
     </g>
     <g id="text_12">
      <!-- 0.975 -->
      <g transform="translate(21.971875 173.608044)scale(0.1 -0.1)">
       <use xlink:href="#DejaVuSans-30"/>
       <use x="63.623047" xlink:href="#DejaVuSans-2e"/>
       <use x="95.410156" xlink:href="#DejaVuSans-39"/>
       <use x="159.033203" xlink:href="#DejaVuSans-37"/>
       <use x="222.65625" xlink:href="#DejaVuSans-35"/>
      </g>
     </g>
    </g>
    <g id="ytick_6">
     <g id="line2d_12">
      <g>
       <use style="stroke:#000000;stroke-width:0.8;" x="57.6" xlink:href="#ma24402354e" y="137.320889"/>
      </g>
     </g>
     <g id="text_13">
      <!-- 0.980 -->
      <defs>
       <path d="M 31.78125 34.625 
Q 24.75 34.625 20.71875 30.859375 
Q 16.703125 27.09375 16.703125 20.515625 
Q 16.703125 13.921875 20.71875 10.15625 
Q 24.75 6.390625 31.78125 6.390625 
Q 38.8125 6.390625 42.859375 10.171875 
Q 46.921875 13.96875 46.921875 20.515625 
Q 46.921875 27.09375 42.890625 30.859375 
Q 38.875 34.625 31.78125 34.625 
z
M 21.921875 38.8125 
Q 15.578125 40.375 12.03125 44.71875 
Q 8.5 49.078125 8.5 55.328125 
Q 8.5 64.0625 14.71875 69.140625 
Q 20.953125 74.21875 31.78125 74.21875 
Q 42.671875 74.21875 48.875 69.140625 
Q 55.078125 64.0625 55.078125 55.328125 
Q 55.078125 49.078125 51.53125 44.71875 
Q 48 40.375 41.703125 38.8125 
Q 48.828125 37.15625 52.796875 32.3125 
Q 56.78125 27.484375 56.78125 20.515625 
Q 56.78125 9.90625 50.3125 4.234375 
Q 43.84375 -1.421875 31.78125 -1.421875 
Q 19.734375 -1.421875 13.25 4.234375 
Q 6.78125 9.90625 6.78125 20.515625 
Q 6.78125 27.484375 10.78125 32.3125 
Q 14.796875 37.15625 21.921875 38.8125 
z
M 18.3125 54.390625 
Q 18.3125 48.734375 21.84375 45.5625 
Q 25.390625 42.390625 31.78125 42.390625 
Q 38.140625 42.390625 41.71875 45.5625 
Q 45.3125 48.734375 45.3125 54.390625 
Q 45.3125 60.0625 41.71875 63.234375 
Q 38.140625 66.40625 31.78125 66.40625 
Q 25.390625 66.40625 21.84375 63.234375 
Q 18.3125 60.0625 18.3125 54.390625 
z
" id="DejaVuSans-38"/>
      </defs>
      <g transform="translate(21.971875 141.120108)scale(0.1 -0.1)">
       <use xlink:href="#DejaVuSans-30"/>
       <use x="63.623047" xlink:href="#DejaVuSans-2e"/>
       <use x="95.410156" xlink:href="#DejaVuSans-39"/>
       <use x="159.033203" xlink:href="#DejaVuSans-38"/>
       <use x="222.65625" xlink:href="#DejaVuSans-30"/>
      </g>
     </g>
    </g>
    <g id="ytick_7">
     <g id="line2d_13">
      <g>
       <use style="stroke:#000000;stroke-width:0.8;" x="57.6" xlink:href="#ma24402354e" y="104.832953"/>
      </g>
     </g>
     <g id="text_14">
      <!-- 0.985 -->
      <g transform="translate(21.971875 108.632172)scale(0.1 -0.1)">
       <use xlink:href="#DejaVuSans-30"/>
       <use x="63.623047" xlink:href="#DejaVuSans-2e"/>
       <use x="95.410156" xlink:href="#DejaVuSans-39"/>
       <use x="159.033203" xlink:href="#DejaVuSans-38"/>
       <use x="222.65625" xlink:href="#DejaVuSans-35"/>
      </g>
     </g>
    </g>
    <g id="ytick_8">
     <g id="line2d_14">
      <g>
       <use style="stroke:#000000;stroke-width:0.8;" x="57.6" xlink:href="#ma24402354e" y="72.345017"/>
      </g>
     </g>
     <g id="text_15">
      <!-- 0.990 -->
      <g transform="translate(21.971875 76.144236)scale(0.1 -0.1)">
       <use xlink:href="#DejaVuSans-30"/>
       <use x="63.623047" xlink:href="#DejaVuSans-2e"/>
       <use x="95.410156" xlink:href="#DejaVuSans-39"/>
       <use x="159.033203" xlink:href="#DejaVuSans-39"/>
       <use x="222.65625" xlink:href="#DejaVuSans-30"/>
      </g>
     </g>
    </g>
    <g id="text_16">
     <!-- accuracy -->
     <defs>
      <path d="M 34.28125 27.484375 
Q 23.390625 27.484375 19.1875 25 
Q 14.984375 22.515625 14.984375 16.5 
Q 14.984375 11.71875 18.140625 8.90625 
Q 21.296875 6.109375 26.703125 6.109375 
Q 34.1875 6.109375 38.703125 11.40625 
Q 43.21875 16.703125 43.21875 25.484375 
L 43.21875 27.484375 
z
M 52.203125 31.203125 
L 52.203125 0 
L 43.21875 0 
L 43.21875 8.296875 
Q 40.140625 3.328125 35.546875 0.953125 
Q 30.953125 -1.421875 24.3125 -1.421875 
Q 15.921875 -1.421875 10.953125 3.296875 
Q 6 8.015625 6 15.921875 
Q 6 25.140625 12.171875 29.828125 
Q 18.359375 34.515625 30.609375 34.515625 
L 43.21875 34.515625 
L 43.21875 35.40625 
Q 43.21875 41.609375 39.140625 45 
Q 35.0625 48.390625 27.6875 48.390625 
Q 23 48.390625 18.546875 47.265625 
Q 14.109375 46.140625 10.015625 43.890625 
L 10.015625 52.203125 
Q 14.9375 54.109375 19.578125 55.046875 
Q 24.21875 56 28.609375 56 
Q 40.484375 56 46.34375 49.84375 
Q 52.203125 43.703125 52.203125 31.203125 
z
" id="DejaVuSans-61"/>
      <path d="M 8.5 21.578125 
L 8.5 54.6875 
L 17.484375 54.6875 
L 17.484375 21.921875 
Q 17.484375 14.15625 20.5 10.265625 
Q 23.53125 6.390625 29.59375 6.390625 
Q 36.859375 6.390625 41.078125 11.03125 
Q 45.3125 15.671875 45.3125 23.6875 
L 45.3125 54.6875 
L 54.296875 54.6875 
L 54.296875 0 
L 45.3125 0 
L 45.3125 8.40625 
Q 42.046875 3.421875 37.71875 1 
Q 33.40625 -1.421875 27.6875 -1.421875 
Q 18.265625 -1.421875 13.375 4.4375 
Q 8.5 10.296875 8.5 21.578125 
z
M 31.109375 56 
z
" id="DejaVuSans-75"/>
      <path d="M 41.109375 46.296875 
Q 39.59375 47.171875 37.8125 47.578125 
Q 36.03125 48 33.890625 48 
Q 26.265625 48 22.1875 43.046875 
Q 18.109375 38.09375 18.109375 28.8125 
L 18.109375 0 
L 9.078125 0 
L 9.078125 54.6875 
L 18.109375 54.6875 
L 18.109375 46.1875 
Q 20.953125 51.171875 25.484375 53.578125 
Q 30.03125 56 36.53125 56 
Q 37.453125 56 38.578125 55.875 
Q 39.703125 55.765625 41.0625 55.515625 
z
" id="DejaVuSans-72"/>
      <path d="M 32.171875 -5.078125 
Q 28.375 -14.84375 24.75 -17.8125 
Q 21.140625 -20.796875 15.09375 -20.796875 
L 7.90625 -20.796875 
L 7.90625 -13.28125 
L 13.1875 -13.28125 
Q 16.890625 -13.28125 18.9375 -11.515625 
Q 21 -9.765625 23.484375 -3.21875 
L 25.09375 0.875 
L 2.984375 54.6875 
L 12.5 54.6875 
L 29.59375 11.921875 
L 46.6875 54.6875 
L 56.203125 54.6875 
z
" id="DejaVuSans-79"/>
     </defs>
     <g transform="translate(15.892187 197.087375)rotate(-90)scale(0.1 -0.1)">
      <use xlink:href="#DejaVuSans-61"/>
      <use x="61.279297" xlink:href="#DejaVuSans-63"/>
      <use x="116.259766" xlink:href="#DejaVuSans-63"/>
      <use x="171.240234" xlink:href="#DejaVuSans-75"/>
      <use x="234.619141" xlink:href="#DejaVuSans-72"/>
      <use x="275.732422" xlink:href="#DejaVuSans-61"/>
      <use x="337.011719" xlink:href="#DejaVuSans-63"/>
      <use x="391.992188" xlink:href="#DejaVuSans-79"/>
     </g>
    </g>
   </g>
   <g id="line2d_15">
    <path clip-path="url(#p06dbe9f9df)" d="M 73.832727 295.488 
L 74.483338 174.253287 
L 75.133948 156.483289 
L 76.435169 135.259758 
L 77.085779 134.569051 
L 77.736389 128.541066 
L 78.386999 124.318337 
L 79.03761 117.882207 
L 79.68822 117.662436 
L 80.989441 114.67984 
L 81.640051 109.7978 
L 82.290661 108.714646 
L 82.941272 109.813497 
L 83.591882 105.182623 
L 84.242492 103.330274 
L 84.893103 102.262818 
L 85.543713 103.50295 
L 86.194323 103.864002 
L 86.844934 101.72909 
L 87.495544 100.379073 
L 88.796764 96.470301 
L 89.447375 93.880151 
L 90.097985 96.831352 
L 90.748595 94.351087 
L 91.399206 92.906883 
L 92.049816 93.754568 
L 92.700426 93.346423 
L 93.351037 93.079559 
L 94.001647 90.913252 
L 94.652257 92.106291 
L 95.302868 90.976044 
L 95.953478 90.693482 
L 96.604088 91.839427 
L 97.254698 88.605664 
L 98.555919 89.531839 
L 99.206529 87.334136 
L 99.85714 88.11903 
L 100.50775 87.412625 
L 101.15836 89.060902 
L 101.808971 87.946353 
L 102.459581 85.293412 
L 103.110191 85.387599 
L 103.760802 85.889931 
L 105.062022 82.609075 
L 105.712633 82.530585 
L 106.363243 84.19456 
L 107.013853 80.9451 
L 107.664463 80.819516 
L 108.315074 81.494525 
L 108.965684 84.571309 
L 109.616294 81.007891 
L 110.266905 81.463129 
L 110.917515 83.880603 
L 111.568125 82.20093 
L 112.218736 81.698598 
L 112.869346 77.899711 
L 113.519956 78.857282 
L 114.170567 78.982865 
L 114.821177 79.767759 
L 115.471787 79.846248 
L 116.122398 78.025294 
L 116.773008 79.547988 
L 117.423618 78.763094 
L 118.074228 79.265427 
L 118.724839 78.370647 
L 119.375449 76.28283 
L 120.026059 80.097414 
L 120.67667 77.381681 
L 121.32728 76.424111 
L 121.97789 77.554358 
L 122.628501 75.654914 
L 123.279111 77.177609 
L 123.929721 76.612485 
L 124.580332 78.57472 
L 125.230942 77.099119 
L 125.881552 77.365983 
L 126.532163 78.025294 
L 127.182773 74.603157 
L 127.833383 74.964208 
L 128.483993 74.807229 
L 129.134604 75.435144 
L 129.785214 73.001973 
L 130.435824 74.038033 
L 131.086435 73.91245 
L 131.737045 74.100825 
L 132.387655 73.347326 
L 133.038266 73.190348 
L 133.688876 75.654915 
L 134.339486 72.468245 
L 134.990097 74.72874 
L 135.640707 73.410118 
L 136.291317 71.746143 
L 136.941927 75.607821 
L 137.592538 72.609526 
L 138.243148 73.472909 
L 138.893758 71.432185 
L 139.544369 70.757177 
L 140.194979 73.457212 
L 140.845589 73.504305 
L 141.4962 71.604862 
L 142.14681 72.13859 
L 142.79742 69.987981 
L 143.448031 72.87639 
L 144.098641 72.421152 
L 144.749251 70.976947 
L 145.399862 70.772874 
L 146.050472 70.710083 
L 146.701082 71.416488 
L 147.351692 71.181019 
L 148.002303 70.301938 
L 148.652913 71.463581 
L 149.303523 70.082168 
L 149.954134 70.506011 
L 150.604744 72.860692 
L 151.255354 70.192053 
L 151.905965 68.653661 
L 152.556575 70.270542 
L 153.207185 68.559474 
L 153.857796 70.254845 
L 154.508406 69.76821 
L 155.159016 70.06647 
L 155.809627 69.8467 
L 157.110847 69.140295 
L 157.761457 69.171691 
L 158.412068 69.077504 
L 159.062678 69.312972 
L 159.713288 69.014712 
L 160.363899 69.32867 
L 161.014509 70.019376 
L 161.665119 69.014712 
L 162.31573 67.77458 
L 162.96634 67.130967 
L 163.61695 69.831002 
L 164.267561 68.920525 
L 164.918171 69.721117 
L 165.568781 70.333334 
L 166.219392 65.985022 
L 166.870002 67.680392 
L 167.520612 67.633299 
L 168.171222 68.308308 
L 168.821833 64.6664 
L 169.472443 68.182724 
L 170.123053 68.81064 
L 170.773664 66.361771 
L 171.424274 67.382133 
L 172.074884 67.507716 
L 172.725495 67.146665 
L 173.376105 66.942592 
L 174.026715 65.576877 
L 174.677326 69.532742 
L 175.327936 67.47632 
L 175.978546 67.727486 
L 176.629156 66.754218 
L 177.279767 65.262919 
L 177.930377 66.832707 
L 178.580987 66.785613 
L 179.231598 66.22049 
L 179.882208 66.094907 
L 180.532818 67.884465 
L 181.183429 65.639668 
L 181.834039 66.581541 
L 183.13526 67.366435 
L 183.78587 66.487354 
L 184.43648 65.027451 
L 185.087091 65.671064 
L 185.737701 66.879801 
L 186.388311 63.787319 
L 187.038921 62.641374 
L 187.689532 66.487354 
L 188.340142 66.879801 
L 188.990752 66.377468 
L 189.641363 66.330375 
L 190.291973 65.48269 
L 190.942583 66.393166 
L 191.593194 65.357107 
L 192.243804 66.330375 
L 193.545025 64.713493 
L 194.195635 64.807681 
L 194.846245 65.969324 
L 195.496856 64.273953 
L 196.147466 67.711788 
L 197.448686 65.372804 
L 198.099297 66.817009 
L 198.749907 64.336744 
L 199.400517 65.561179 
L 200.051128 63.959995 
L 200.701738 63.959995 
L 201.352348 64.948962 
L 202.002959 66.518749 
L 202.653569 66.032115 
L 203.95479 64.022787 
L 204.6054 64.870472 
L 205.25601 64.054183 
L 206.557231 63.049518 
L 207.207841 65.262919 
L 207.858451 63.379174 
L 208.509062 66.550145 
L 209.159672 65.294315 
L 209.810282 64.635004 
L 210.460893 63.269289 
L 211.111503 65.043149 
L 211.762113 65.498387 
L 212.412724 63.551851 
L 213.063334 63.347778 
L 213.713944 63.771621 
L 214.364555 63.536153 
L 215.015165 61.809386 
L 215.665775 62.735561 
L 216.316385 64.195464 
L 216.966996 62.782655 
L 218.268216 64.854774 
L 218.918827 60.647743 
L 219.569437 62.233229 
L 220.220047 63.33208 
L 220.870658 62.766957 
L 221.521268 62.421603 
L 222.171878 64.430932 
L 222.822489 61.746594 
L 223.473099 63.614642 
L 224.123709 63.143706 
L 224.77432 65.749553 
L 225.42493 63.300684 
L 226.07554 62.233229 
L 226.72615 61.966365 
L 227.376761 63.300685 
L 228.027371 60.757628 
L 228.677981 61.950667 
L 229.328592 62.845446 
L 229.979202 60.930305 
L 230.629812 61.511126 
L 231.280423 63.080914 
L 231.931033 61.699501 
L 233.232254 62.139041 
L 233.882864 60.883211 
L 234.533474 59.972734 
L 235.184085 61.934969 
L 237.135915 63.771621 
L 238.437136 58.936674 
L 239.087746 61.99776 
L 239.738357 63.693131 
L 240.388967 60.255296 
L 241.039577 62.798352 
L 241.690188 59.470402 
L 242.340798 61.401241 
L 242.991408 62.500093 
L 243.642019 60.490764 
L 244.292629 61.369845 
L 244.943239 61.903573 
L 245.59385 60.836118 
L 246.24446 60.066921 
L 246.89507 62.452999 
L 247.54568 61.04019 
L 248.196291 60.82042 
L 248.846901 59.4861 
L 249.497511 60.867513 
L 250.148122 60.977398 
L 250.798732 62.484395 
L 251.449342 59.046559 
L 252.750563 59.407611 
L 254.051784 59.172142 
L 254.702394 61.903573 
L 255.353004 60.082619 
L 256.003615 59.282028 
L 256.654225 59.988432 
L 257.304835 60.883211 
L 257.955445 61.33845 
L 258.606056 60.930305 
L 259.256666 61.730897 
L 259.907276 60.883211 
L 260.557887 59.847151 
L 261.208497 59.925641 
L 261.859107 59.313423 
L 262.509718 60.490764 
L 263.160328 59.800058 
L 263.810938 58.528529 
L 264.461549 60.443671 
L 265.112159 57.884917 
L 265.762769 60.600649 
L 266.413379 60.757628 
L 267.06399 59.423309 
L 267.7146 60.066922 
L 268.36521 61.589616 
L 269.015821 63.426267 
L 269.666431 60.537858 
L 270.317041 59.800058 
L 270.967652 61.589616 
L 271.618262 59.156445 
L 272.268872 62.044854 
L 272.919483 62.264624 
L 273.570093 61.134377 
L 274.220703 58.293061 
L 274.871314 59.595985 
L 275.521924 61.77799 
L 276.172534 60.600649 
L 276.823144 61.385543 
L 277.473755 60.694837 
L 278.124365 58.873883 
L 278.774975 58.198874 
L 279.425586 59.988432 
L 280.076196 60.145411 
L 280.726806 58.026197 
L 281.377417 58.873883 
L 282.028027 57.93201 
L 282.678637 58.402946 
L 283.329248 60.616347 
L 283.979858 60.30239 
L 285.931689 57.806427 
L 286.582299 56.472107 
L 287.232909 60.710535 
L 287.88352 57.916312 
L 288.53413 59.533194 
L 289.18474 60.082619 
L 290.485961 59.156445 
L 291.136571 60.584951 
L 291.787182 59.941338 
L 292.437792 60.114015 
L 293.088402 59.454704 
L 293.739013 57.555261 
L 294.389623 58.245968 
L 295.040233 56.001171 
L 296.341454 58.66981 
L 296.992064 59.972734 
L 297.642674 58.418644 
L 298.293285 59.517496 
L 298.943895 59.26633 
L 299.594505 58.858185 
L 300.245116 58.136082 
L 300.895726 58.528529 
L 301.546336 59.172143 
L 302.196947 58.873883 
L 302.847557 57.304095 
L 303.498167 57.900614 
L 304.148778 55.954077 
L 304.799388 55.483141 
L 306.100608 61.102981 
L 306.751219 59.862849 
L 307.401829 61.150075 
L 308.052439 59.125049 
L 308.70305 57.665146 
L 309.35366 58.889581 
L 310.00427 60.396577 
L 310.654881 58.920977 
L 311.305491 59.768662 
L 311.956101 58.66981 
L 312.606712 58.355853 
L 313.257322 57.727938 
L 313.907932 58.497134 
L 314.558543 57.319793 
L 315.209153 57.979104 
L 316.510373 59.690172 
L 317.160984 59.909943 
L 317.811594 59.737266 
L 318.462204 58.277364 
L 319.112815 59.407611 
L 319.763425 60.098317 
L 321.064646 56.063963 
L 321.715256 57.005835 
L 322.365866 58.952372 
L 323.016477 58.183176 
L 323.667087 55.34186 
L 324.317697 54.541269 
L 324.968308 56.016869 
L 325.618918 55.875588 
L 326.269528 56.173848 
L 326.920138 56.786065 
L 327.570749 56.911648 
L 328.221359 58.858185 
L 328.871969 58.387249 
L 329.52258 57.696542 
L 330.17319 57.382584 
L 330.8238 57.743636 
L 331.474411 55.561631 
L 332.125021 55.216277 
L 332.775631 57.052929 
L 333.426242 56.644784 
L 334.076852 56.440712 
L 334.727462 55.969775 
L 335.378073 56.880252 
L 336.028683 55.545933 
L 336.679293 58.073291 
L 337.329903 58.559925 
L 337.980514 55.467443 
L 338.631124 56.440712 
L 339.281734 55.750005 
L 339.932345 56.738971 
L 340.582955 56.189546 
L 341.233565 56.330827 
L 341.884176 57.429678 
L 342.534786 57.994802 
L 343.185396 56.048265 
L 343.836007 57.586657 
L 344.486617 58.607019 
L 345.787837 55.891286 
L 347.089058 59.564589 
L 347.739668 56.990137 
L 348.390279 56.236639 
L 349.040889 56.173848 
L 349.691499 57.351189 
L 350.99272 54.415686 
L 351.64333 57.162814 
L 352.293941 57.476772 
L 352.944551 56.691878 
L 353.595161 58.873883 
L 355.546992 55.577328 
L 356.197602 56.487805 
L 356.848213 59.062257 
L 357.498823 56.205243 
L 358.149433 55.906984 
L 358.800044 54.651154 
L 359.450654 54.619758 
L 360.101264 56.974439 
L 360.751875 57.147116 
L 361.402485 56.299431 
L 362.053095 57.241303 
L 362.703706 57.790729 
L 363.354316 54.101728 
L 364.004926 57.445376 
L 364.655537 58.088989 
L 365.306147 57.225606 
L 365.956757 56.911648 
L 366.607367 58.920976 
L 367.257978 56.911648 
L 367.908588 55.765703 
L 368.559198 57.822125 
L 369.209809 55.12209 
L 369.860419 56.97444 
L 370.511029 57.63375 
L 371.16164 55.279069 
L 371.81225 57.994802 
L 372.46286 54.996507 
L 373.113471 56.425014 
L 373.764081 57.162814 
L 374.414691 54.980809 
L 375.065302 54.494175 
L 375.715912 54.949413 
L 376.366522 56.691878 
L 377.017132 55.593026 
L 377.667743 55.153486 
L 378.318353 55.985473 
L 378.968963 55.216277 
L 379.619574 55.247673 
L 380.270184 54.509873 
L 380.920794 54.870924 
L 381.571405 54.839528 
L 382.222015 56.97444 
L 382.872625 56.236639 
L 383.523236 58.355853 
L 384.173846 54.933715 
L 384.824456 55.498839 
L 385.475066 55.294767 
L 386.125677 56.770367 
L 386.776287 55.153486 
L 387.426897 55.059298 
L 388.077508 56.095358 
L 388.728118 54.933715 
L 389.378728 54.933715 
L 390.029339 53.568 
L 390.679949 57.304095 
L 391.330559 56.283733 
L 392.63178 53.740677 
L 393.28239 55.153486 
L 393.933001 55.216277 
L 394.583611 57.539563 
L 395.234221 56.440712 
L 395.884831 56.362222 
L 396.535442 58.104687 
L 397.836662 56.299431 
L 398.487273 56.67618 
L 398.487273 56.67618 
" style="fill:none;stroke:#1f77b4;stroke-linecap:square;stroke-width:1.5;"/>
   </g>
   <g id="line2d_16">
    <path clip-path="url(#p06dbe9f9df)" d="M 73.832727 198.395386 
L 75.133948 158.130365 
L 75.784558 146.066901 
L 76.435169 156.333679 
L 77.085779 152.226968 
L 77.736389 140.965595 
L 78.386999 150.045277 
L 79.03761 146.419821 
L 79.68822 136.602215 
L 80.33883 138.04598 
L 80.989441 137.308056 
L 81.640051 126.142934 
L 82.290661 129.928809 
L 82.941272 129.896725 
L 83.591882 126.720441 
L 84.242492 126.656273 
L 84.893103 123.544156 
L 85.543713 128.870047 
L 86.194323 120.592458 
L 86.844934 125.020006 
L 87.495544 125.982516 
L 88.146154 122.228725 
L 88.796764 120.271621 
L 89.447375 122.742064 
L 90.097985 126.848776 
L 90.748595 122.132474 
L 91.399206 118.763688 
L 92.049816 122.742064 
L 92.700426 120.111202 
L 93.351037 124.635001 
L 94.001647 119.790366 
L 94.652257 116.036575 
L 95.302868 119.950784 
L 95.953478 120.111202 
L 96.604088 115.523236 
L 97.254698 117.159504 
L 97.905309 117.255755 
L 98.555919 114.785311 
L 99.206529 116.453663 
L 99.85714 120.78496 
L 100.50775 117.544508 
L 101.15836 115.009897 
L 101.808971 117.287838 
L 102.459581 115.55532 
L 103.110191 112.346951 
L 103.760802 118.474935 
L 104.411412 118.025763 
L 105.062022 117.191587 
L 105.712633 120.111202 
L 106.363243 113.405713 
L 107.013853 116.196993 
L 107.664463 114.111554 
L 108.315074 113.630299 
L 108.965684 116.132826 
L 109.616294 114.68906 
L 110.266905 116.229077 
L 110.917515 113.020709 
L 111.568125 116.164909 
L 112.218736 111.865696 
L 112.869346 113.341545 
L 113.519956 114.271972 
L 114.170567 113.662382 
L 114.821177 114.592809 
L 115.471787 115.234483 
L 116.122398 114.239889 
L 116.773008 111.063604 
L 117.423618 112.346951 
L 118.074228 112.282784 
L 118.724839 110.871102 
L 119.375449 115.779905 
L 120.026059 110.486098 
L 120.67667 110.389847 
L 121.32728 113.052792 
L 121.97789 110.101094 
L 122.628501 110.967353 
L 123.279111 114.207805 
L 123.929721 114.07947 
L 124.580332 112.314868 
L 125.230942 114.560725 
L 125.881552 118.924106 
L 126.532163 116.068658 
L 127.182773 117.12742 
L 127.833383 111.673194 
L 128.483993 117.769094 
L 129.134604 113.373629 
L 129.785214 111.673194 
L 130.435824 114.496558 
L 131.086435 111.833612 
L 131.737045 113.919052 
L 132.387655 110.871102 
L 133.038266 113.437797 
L 133.688876 108.978165 
L 134.339486 115.074064 
L 134.990097 117.031169 
L 135.640707 115.587403 
L 136.291317 112.218617 
L 137.592538 115.651571 
L 138.243148 112.218617 
L 138.893758 106.026466 
L 139.544369 108.24024 
L 140.194979 112.731956 
L 140.845589 114.015303 
L 141.4962 110.004843 
L 142.14681 114.849479 
L 142.79742 113.373629 
L 143.448031 113.277378 
L 144.098641 116.004491 
L 144.749251 112.346951 
L 145.399862 112.122366 
L 146.050472 113.534048 
L 146.701082 111.320274 
L 147.351692 114.432391 
L 148.002303 109.45942 
L 148.652913 108.528993 
L 149.303523 111.994031 
L 149.954134 112.443202 
L 150.604744 114.239889 
L 151.255354 109.170667 
L 151.905965 116.806583 
L 152.556575 110.165261 
L 153.207185 112.314868 
L 153.857796 107.373981 
L 154.508406 108.432742 
L 155.159016 108.432742 
L 155.809627 108.24024 
L 156.460237 110.614433 
L 157.110847 112.122366 
L 157.761457 110.710684 
L 158.412068 110.197345 
L 159.062678 113.822801 
L 159.713288 110.839018 
L 160.363899 114.849479 
L 161.014509 112.667788 
L 161.665119 111.89778 
L 162.31573 109.555671 
L 162.96634 110.197345 
L 163.61695 114.33614 
L 164.267561 111.705278 
L 164.918171 114.400307 
L 165.568781 110.742767 
L 166.219392 112.50737 
L 166.870002 112.50737 
L 167.520612 110.871102 
L 168.171222 111.256106 
L 168.821833 107.27773 
L 169.472443 108.143989 
L 170.123053 112.892374 
L 170.773664 112.796123 
L 171.424274 114.271972 
L 172.074884 113.181127 
L 172.725495 108.978165 
L 173.376105 109.684006 
L 174.026715 107.438148 
L 174.677326 111.512776 
L 175.327936 111.576943 
L 175.978546 111.095688 
L 176.629156 106.636056 
L 177.279767 109.299002 
L 177.930377 110.582349 
L 178.580987 111.191939 
L 179.231598 105.962299 
L 179.882208 110.710684 
L 180.532818 112.50737 
L 181.183429 109.45942 
L 181.834039 112.411119 
L 182.484649 112.828207 
L 183.13526 108.593161 
L 183.78587 113.020709 
L 184.43648 109.716089 
L 185.087091 111.063604 
L 185.737701 108.015654 
L 186.388311 104.326031 
L 187.689532 109.555671 
L 188.990752 113.758633 
L 189.641363 108.336491 
L 190.291973 110.710684 
L 190.942583 106.571889 
L 191.593194 110.133177 
L 192.243804 111.127771 
L 192.894414 112.443202 
L 193.545025 114.33614 
L 194.195635 110.839018 
L 195.496856 110.454014 
L 196.147466 111.352357 
L 196.798076 112.764039 
L 197.448686 108.143989 
L 198.099297 112.796123 
L 198.749907 110.357763 
L 199.400517 108.913997 
L 200.701738 110.967353 
L 201.352348 111.095688 
L 202.002959 109.427336 
L 202.653569 113.084876 
L 203.304179 110.903186 
L 203.95479 114.304056 
L 204.6054 108.047738 
L 205.25601 108.336491 
L 205.906621 113.020709 
L 206.557231 110.229428 
L 207.207841 112.122366 
L 207.858451 112.635704 
L 208.509062 109.138583 
L 209.159672 111.64111 
L 209.810282 108.785663 
L 210.460893 112.314868 
L 211.111503 108.657328 
L 211.762113 110.614433 
L 212.412724 110.229428 
L 213.063334 105.609378 
L 213.713944 111.544859 
L 214.364555 107.534399 
L 215.015165 112.379035 
L 215.665775 113.084876 
L 216.316385 109.780257 
L 216.966996 110.229428 
L 218.268216 111.994031 
L 218.918827 111.705278 
L 219.569437 107.791069 
L 220.220047 112.2507 
L 220.870658 110.229428 
L 221.521268 109.427336 
L 222.171878 108.913997 
L 222.822489 111.320274 
L 223.473099 114.624893 
L 224.123709 108.047738 
L 224.77432 109.395253 
L 225.42493 109.716089 
L 226.07554 109.844424 
L 226.72615 113.630299 
L 227.376761 107.309813 
L 228.027371 107.662734 
L 228.677981 111.737361 
L 229.979202 109.491504 
L 230.629812 114.368223 
L 231.280423 111.833612 
L 231.931033 110.357763 
L 232.581643 112.796123 
L 233.232254 110.486098 
L 233.882864 108.593161 
L 234.533474 109.234834 
L 235.184085 110.293596 
L 235.834695 109.170667 
L 236.485305 106.828558 
L 237.135915 111.191939 
L 237.786526 107.823152 
L 238.437136 110.004843 
L 239.087746 114.015303 
L 239.738357 108.753579 
L 240.388967 114.207805 
L 241.039577 110.999437 
L 241.690188 106.539805 
L 242.340798 108.753579 
L 242.991408 113.245294 
L 243.642019 107.662734 
L 244.292629 108.528993 
L 245.59385 109.587755 
L 246.24446 112.122366 
L 246.89507 113.149043 
L 247.54568 111.512776 
L 248.196291 107.566483 
L 248.846901 109.042332 
L 249.497511 109.331085 
L 250.148122 108.24024 
L 250.798732 108.464826 
L 251.449342 107.181479 
L 252.099953 111.929863 
L 252.750563 109.331085 
L 253.401173 110.646516 
L 254.051784 106.571889 
L 254.702394 108.079822 
L 255.353004 110.357763 
L 256.003615 109.010248 
L 256.654225 106.66814 
L 257.304835 105.866048 
L 257.955445 113.149043 
L 258.606056 108.464826 
L 259.256666 110.197345 
L 259.907276 110.903186 
L 260.557887 107.919403 
L 261.208497 110.357763 
L 261.859107 112.2507 
L 262.509718 112.154449 
L 263.160328 110.646516 
L 263.810938 108.047738 
L 264.461549 108.913997 
L 265.112159 107.88732 
L 265.762769 110.42193 
L 266.413379 111.03152 
L 267.06399 109.908592 
L 267.7146 114.432391 
L 268.36521 111.095688 
L 269.015821 113.181127 
L 269.666431 113.437797 
L 270.317041 110.646516 
L 270.967652 111.03152 
L 271.618262 114.07947 
L 272.268872 111.159855 
L 272.919483 113.951135 
L 273.570093 110.710684 
L 274.220703 109.234834 
L 275.521924 112.603621 
L 276.172534 111.063604 
L 276.823144 115.138232 
L 277.473755 111.865696 
L 278.124365 107.181479 
L 278.774975 110.197345 
L 279.425586 109.45942 
L 280.076196 112.058198 
L 280.726806 111.416525 
L 281.377417 112.892374 
L 282.028027 106.475638 
L 282.678637 112.50737 
L 283.329248 110.646516 
L 283.979858 107.88732 
L 284.630468 111.28819 
L 285.281079 109.555671 
L 285.931689 109.908592 
L 286.582299 109.81234 
L 287.232909 106.186884 
L 287.88352 110.101094 
L 288.53413 110.6786 
L 289.18474 106.956893 
L 289.835351 107.63065 
L 290.485961 109.844424 
L 291.136571 106.636056 
L 291.787182 107.63065 
L 292.437792 111.127771 
L 293.088402 109.427336 
L 293.739013 110.999437 
L 294.389623 111.994031 
L 295.040233 110.389847 
L 295.690844 110.582349 
L 296.341454 109.651922 
L 296.992064 110.871102 
L 297.642674 113.566131 
L 298.293285 109.684006 
L 298.943895 109.748173 
L 299.594505 108.336491 
L 300.245116 109.844424 
L 300.895726 114.143638 
L 301.546336 110.871102 
L 302.196947 108.978165 
L 303.498167 110.004843 
L 304.148778 112.058198 
L 304.799388 107.855236 
L 306.100608 114.817395 
L 306.751219 112.956541 
L 307.401829 109.010248 
L 308.052439 108.721495 
L 308.70305 109.170667 
L 309.35366 110.999437 
L 310.00427 106.41147 
L 310.654881 110.261512 
L 311.305491 111.801529 
L 311.956101 108.432742 
L 312.606712 107.791069 
L 313.257322 108.913997 
L 313.907932 107.438148 
L 314.558543 110.614433 
L 315.209153 110.871102 
L 315.859763 110.165261 
L 316.510373 110.42193 
L 317.160984 110.839018 
L 317.811594 107.406064 
L 318.462204 111.512776 
L 319.112815 111.448608 
L 319.763425 116.164909 
L 320.414035 110.774851 
L 321.064646 109.106499 
L 321.715256 109.523587 
L 322.365866 110.742767 
L 323.016477 106.218968 
L 323.667087 108.881914 
L 324.317697 106.571889 
L 324.968308 111.28819 
L 325.618918 109.684006 
L 326.269528 107.053144 
L 326.920138 111.480692 
L 327.570749 108.913997 
L 328.221359 111.191939 
L 328.871969 110.101094 
L 329.52258 107.951487 
L 330.17319 111.127771 
L 330.8238 109.45942 
L 331.474411 105.994382 
L 332.125021 107.951487 
L 332.775631 110.903186 
L 333.426242 111.544859 
L 334.076852 107.309813 
L 334.727462 109.940675 
L 335.378073 107.855236 
L 336.028683 106.539805 
L 336.679293 108.721495 
L 337.329903 114.175721 
L 337.980514 113.11696 
L 338.631124 110.646516 
L 339.281734 110.42193 
L 339.932345 109.651922 
L 340.582955 108.208156 
L 341.233565 108.753579 
L 341.884176 106.571889 
L 342.534786 110.6786 
L 343.185396 111.28819 
L 343.836007 115.009897 
L 345.137227 108.143989 
L 345.787837 111.320274 
L 346.438448 113.181127 
L 347.089058 113.149043 
L 347.739668 112.635704 
L 348.390279 108.881914 
L 349.040889 112.571537 
L 349.691499 107.63065 
L 350.34211 110.6786 
L 350.99272 109.716089 
L 351.64333 111.159855 
L 352.293941 114.047386 
L 352.944551 110.004843 
L 353.595161 112.218617 
L 354.245772 110.357763 
L 354.896382 107.406064 
L 355.546992 115.202399 
L 356.197602 112.154449 
L 356.848213 111.095688 
L 357.498823 111.416525 
L 358.149433 108.143989 
L 358.800044 109.844424 
L 359.450654 108.208156 
L 360.101264 111.737361 
L 360.751875 108.015654 
L 361.402485 114.047386 
L 362.053095 113.822801 
L 362.703706 110.806935 
L 363.354316 115.138232 
L 364.004926 112.50737 
L 364.655537 106.475638 
L 365.306147 115.009897 
L 365.956757 114.111554 
L 366.607367 110.614433 
L 367.257978 109.395253 
L 367.908588 114.271972 
L 368.559198 112.86029 
L 369.209809 111.833612 
L 369.860419 111.127771 
L 370.511029 112.218617 
L 371.16164 110.454014 
L 372.46286 112.154449 
L 373.113471 108.047738 
L 373.764081 109.716089 
L 374.414691 108.111905 
L 375.065302 109.844424 
L 375.715912 110.06901 
L 376.366522 112.796123 
L 377.017132 113.534048 
L 378.318353 108.272324 
L 378.968963 114.977813 
L 379.619574 108.881914 
L 380.270184 109.395253 
L 380.920794 107.373981 
L 381.571405 110.935269 
L 382.872625 112.411119 
L 383.523236 112.603621 
L 384.173846 111.127771 
L 384.824456 110.614433 
L 385.475066 110.550265 
L 386.125677 113.373629 
L 387.426897 109.908592 
L 388.077508 113.822801 
L 388.728118 106.507721 
L 389.378728 111.961947 
L 390.029339 114.143638 
L 390.679949 111.03152 
L 391.330559 109.523587 
L 391.98117 111.737361 
L 392.63178 109.45942 
L 393.28239 110.774851 
L 393.933001 105.80188 
L 394.583611 111.127771 
L 395.234221 110.903186 
L 395.884831 107.534399 
L 396.535442 109.363169 
L 397.836662 114.913646 
L 398.487273 109.331085 
L 398.487273 109.331085 
" style="fill:none;stroke:#ff7f0e;stroke-linecap:square;stroke-width:1.5;"/>
   </g>
   <g id="patch_3">
    <path d="M 57.6 307.584 
L 57.6 41.472 
" style="fill:none;stroke:#000000;stroke-linecap:square;stroke-linejoin:miter;stroke-width:0.8;"/>
   </g>
   <g id="patch_4">
    <path d="M 414.72 307.584 
L 414.72 41.472 
" style="fill:none;stroke:#000000;stroke-linecap:square;stroke-linejoin:miter;stroke-width:0.8;"/>
   </g>
   <g id="patch_5">
    <path d="M 57.6 307.584 
L 414.72 307.584 
" style="fill:none;stroke:#000000;stroke-linecap:square;stroke-linejoin:miter;stroke-width:0.8;"/>
   </g>
   <g id="patch_6">
    <path d="M 57.6 41.472 
L 414.72 41.472 
" style="fill:none;stroke:#000000;stroke-linecap:square;stroke-linejoin:miter;stroke-width:0.8;"/>
   </g>
   <g id="text_17">
    <!-- model accuracy -->
    <defs>
     <path d="M 52 44.1875 
Q 55.375 50.25 60.0625 53.125 
Q 64.75 56 71.09375 56 
Q 79.640625 56 84.28125 50.015625 
Q 88.921875 44.046875 88.921875 33.015625 
L 88.921875 0 
L 79.890625 0 
L 79.890625 32.71875 
Q 79.890625 40.578125 77.09375 44.375 
Q 74.3125 48.1875 68.609375 48.1875 
Q 61.625 48.1875 57.5625 43.546875 
Q 53.515625 38.921875 53.515625 30.90625 
L 53.515625 0 
L 44.484375 0 
L 44.484375 32.71875 
Q 44.484375 40.625 41.703125 44.40625 
Q 38.921875 48.1875 33.109375 48.1875 
Q 26.21875 48.1875 22.15625 43.53125 
Q 18.109375 38.875 18.109375 30.90625 
L 18.109375 0 
L 9.078125 0 
L 9.078125 54.6875 
L 18.109375 54.6875 
L 18.109375 46.1875 
Q 21.1875 51.21875 25.484375 53.609375 
Q 29.78125 56 35.6875 56 
Q 41.65625 56 45.828125 52.96875 
Q 50 49.953125 52 44.1875 
z
" id="DejaVuSans-6d"/>
     <path d="M 45.40625 46.390625 
L 45.40625 75.984375 
L 54.390625 75.984375 
L 54.390625 0 
L 45.40625 0 
L 45.40625 8.203125 
Q 42.578125 3.328125 38.25 0.953125 
Q 33.9375 -1.421875 27.875 -1.421875 
Q 17.96875 -1.421875 11.734375 6.484375 
Q 5.515625 14.40625 5.515625 27.296875 
Q 5.515625 40.1875 11.734375 48.09375 
Q 17.96875 56 27.875 56 
Q 33.9375 56 38.25 53.625 
Q 42.578125 51.265625 45.40625 46.390625 
z
M 14.796875 27.296875 
Q 14.796875 17.390625 18.875 11.75 
Q 22.953125 6.109375 30.078125 6.109375 
Q 37.203125 6.109375 41.296875 11.75 
Q 45.40625 17.390625 45.40625 27.296875 
Q 45.40625 37.203125 41.296875 42.84375 
Q 37.203125 48.484375 30.078125 48.484375 
Q 22.953125 48.484375 18.875 42.84375 
Q 14.796875 37.203125 14.796875 27.296875 
z
" id="DejaVuSans-64"/>
     <path d="M 9.421875 75.984375 
L 18.40625 75.984375 
L 18.40625 0 
L 9.421875 0 
z
" id="DejaVuSans-6c"/>
     <path id="DejaVuSans-20"/>
    </defs>
    <g transform="translate(188.498437 35.472)scale(0.12 -0.12)">
     <use xlink:href="#DejaVuSans-6d"/>
     <use x="97.412109" xlink:href="#DejaVuSans-6f"/>
     <use x="158.59375" xlink:href="#DejaVuSans-64"/>
     <use x="222.070312" xlink:href="#DejaVuSans-65"/>
     <use x="283.59375" xlink:href="#DejaVuSans-6c"/>
     <use x="311.376953" xlink:href="#DejaVuSans-20"/>
     <use x="343.164062" xlink:href="#DejaVuSans-61"/>
     <use x="404.443359" xlink:href="#DejaVuSans-63"/>
     <use x="459.423828" xlink:href="#DejaVuSans-63"/>
     <use x="514.404297" xlink:href="#DejaVuSans-75"/>
     <use x="577.783203" xlink:href="#DejaVuSans-72"/>
     <use x="618.896484" xlink:href="#DejaVuSans-61"/>
     <use x="680.175781" xlink:href="#DejaVuSans-63"/>
     <use x="735.15625" xlink:href="#DejaVuSans-79"/>
    </g>
   </g>
   <g id="legend_1">
    <g id="patch_7">
     <path d="M 64.6 78.82825 
L 119.875 78.82825 
Q 121.875 78.82825 121.875 76.82825 
L 121.875 48.472 
Q 121.875 46.472 119.875 46.472 
L 64.6 46.472 
Q 62.6 46.472 62.6 48.472 
L 62.6 76.82825 
Q 62.6 78.82825 64.6 78.82825 
z
" style="fill:#ffffff;opacity:0.8;stroke:#cccccc;stroke-linejoin:miter;"/>
    </g>
    <g id="line2d_17">
     <path d="M 66.6 54.570437 
L 86.6 54.570437 
" style="fill:none;stroke:#1f77b4;stroke-linecap:square;stroke-width:1.5;"/>
    </g>
    <g id="line2d_18"/>
    <g id="text_18">
     <!-- train -->
     <defs>
      <path d="M 18.3125 70.21875 
L 18.3125 54.6875 
L 36.8125 54.6875 
L 36.8125 47.703125 
L 18.3125 47.703125 
L 18.3125 18.015625 
Q 18.3125 11.328125 20.140625 9.421875 
Q 21.96875 7.515625 27.59375 7.515625 
L 36.8125 7.515625 
L 36.8125 0 
L 27.59375 0 
Q 17.1875 0 13.234375 3.875 
Q 9.28125 7.765625 9.28125 18.015625 
L 9.28125 47.703125 
L 2.6875 47.703125 
L 2.6875 54.6875 
L 9.28125 54.6875 
L 9.28125 70.21875 
z
" id="DejaVuSans-74"/>
      <path d="M 9.421875 54.6875 
L 18.40625 54.6875 
L 18.40625 0 
L 9.421875 0 
z
M 9.421875 75.984375 
L 18.40625 75.984375 
L 18.40625 64.59375 
L 9.421875 64.59375 
z
" id="DejaVuSans-69"/>
      <path d="M 54.890625 33.015625 
L 54.890625 0 
L 45.90625 0 
L 45.90625 32.71875 
Q 45.90625 40.484375 42.875 44.328125 
Q 39.84375 48.1875 33.796875 48.1875 
Q 26.515625 48.1875 22.3125 43.546875 
Q 18.109375 38.921875 18.109375 30.90625 
L 18.109375 0 
L 9.078125 0 
L 9.078125 54.6875 
L 18.109375 54.6875 
L 18.109375 46.1875 
Q 21.34375 51.125 25.703125 53.5625 
Q 30.078125 56 35.796875 56 
Q 45.21875 56 50.046875 50.171875 
Q 54.890625 44.34375 54.890625 33.015625 
z
" id="DejaVuSans-6e"/>
     </defs>
     <g transform="translate(94.6 58.070437)scale(0.1 -0.1)">
      <use xlink:href="#DejaVuSans-74"/>
      <use x="39.208984" xlink:href="#DejaVuSans-72"/>
      <use x="80.322266" xlink:href="#DejaVuSans-61"/>
      <use x="141.601562" xlink:href="#DejaVuSans-69"/>
      <use x="169.384766" xlink:href="#DejaVuSans-6e"/>
     </g>
    </g>
    <g id="line2d_19">
     <path d="M 66.6 69.248562 
L 86.6 69.248562 
" style="fill:none;stroke:#ff7f0e;stroke-linecap:square;stroke-width:1.5;"/>
    </g>
    <g id="line2d_20"/>
    <g id="text_19">
     <!-- test -->
     <defs>
      <path d="M 44.28125 53.078125 
L 44.28125 44.578125 
Q 40.484375 46.53125 36.375 47.5 
Q 32.28125 48.484375 27.875 48.484375 
Q 21.1875 48.484375 17.84375 46.4375 
Q 14.5 44.390625 14.5 40.28125 
Q 14.5 37.15625 16.890625 35.375 
Q 19.28125 33.59375 26.515625 31.984375 
L 29.59375 31.296875 
Q 39.15625 29.25 43.1875 25.515625 
Q 47.21875 21.78125 47.21875 15.09375 
Q 47.21875 7.46875 41.1875 3.015625 
Q 35.15625 -1.421875 24.609375 -1.421875 
Q 20.21875 -1.421875 15.453125 -0.5625 
Q 10.6875 0.296875 5.421875 2 
L 5.421875 11.28125 
Q 10.40625 8.6875 15.234375 7.390625 
Q 20.0625 6.109375 24.8125 6.109375 
Q 31.15625 6.109375 34.5625 8.28125 
Q 37.984375 10.453125 37.984375 14.40625 
Q 37.984375 18.0625 35.515625 20.015625 
Q 33.0625 21.96875 24.703125 23.78125 
L 21.578125 24.515625 
Q 13.234375 26.265625 9.515625 29.90625 
Q 5.8125 33.546875 5.8125 39.890625 
Q 5.8125 47.609375 11.28125 51.796875 
Q 16.75 56 26.8125 56 
Q 31.78125 56 36.171875 55.265625 
Q 40.578125 54.546875 44.28125 53.078125 
z
" id="DejaVuSans-73"/>
     </defs>
     <g transform="translate(94.6 72.748562)scale(0.1 -0.1)">
      <use xlink:href="#DejaVuSans-74"/>
      <use x="39.208984" xlink:href="#DejaVuSans-65"/>
      <use x="100.732422" xlink:href="#DejaVuSans-73"/>
      <use x="152.832031" xlink:href="#DejaVuSans-74"/>
     </g>
    </g>
   </g>
  </g>
 </g>
 <defs>
  <clipPath id="p06dbe9f9df">
   <rect height="266.112" width="357.12" x="57.6" y="41.472"/>
  </clipPath>
 </defs>
</svg>
