<?xml version="1.0" encoding="UTF-8" standalone="no"?>
<!DOCTYPE svg PUBLIC "-//W3C//DTD SVG 1.1//EN"
 "http://www.w3.org/Graphics/SVG/1.1/DTD/svg11.dtd">
<!-- Generated by graphviz version 2.38.0 (20140413.2041)
 -->
<!-- Title: G Pages: 1 -->
<svg width="328pt" height="221pt"
 viewBox="0.00 0.00 328.00 221.00" xmlns="http://www.w3.org/2000/svg" xmlns:xlink="http://www.w3.org/1999/xlink">
<g id="graph0" class="graph" transform="scale(1 1) rotate(0) translate(4 217)">
<title>G</title>
<polygon fill="white" stroke="none" points="-4,4 -4,-217 324,-217 324,4 -4,4"/>
<!-- 140226647222704 -->
<g id="node1" class="node"><title>140226647222704</title>
<polygon fill="none" stroke="black" points="32,-166.5 32,-212.5 288,-212.5 288,-166.5 32,-166.5"/>
<text text-anchor="middle" x="94.5" y="-185.8" font-family="Times,serif" font-size="14.00">input_2: InputLayer</text>
<polyline fill="none" stroke="black" points="157,-166.5 157,-212.5 "/>
<text text-anchor="middle" x="184.5" y="-197.3" font-family="Times,serif" font-size="14.00">input:</text>
<polyline fill="none" stroke="black" points="157,-189.5 212,-189.5 "/>
<text text-anchor="middle" x="184.5" y="-174.3" font-family="Times,serif" font-size="14.00">output:</text>
<polyline fill="none" stroke="black" points="212,-166.5 212,-212.5 "/>
<text text-anchor="middle" x="250" y="-197.3" font-family="Times,serif" font-size="14.00">(None, 16)</text>
<polyline fill="none" stroke="black" points="212,-189.5 288,-189.5 "/>
<text text-anchor="middle" x="250" y="-174.3" font-family="Times,serif" font-size="14.00">(None, 16)</text>
</g>
<!-- 140225291639720 -->
<g id="node2" class="node"><title>140225291639720</title>
<polygon fill="none" stroke="black" points="0,-83.5 0,-129.5 320,-129.5 320,-83.5 0,-83.5"/>
<text text-anchor="middle" x="80.5" y="-102.8" font-family="Times,serif" font-size="14.00">embedding_1: Embedding</text>
<polyline fill="none" stroke="black" points="161,-83.5 161,-129.5 "/>
<text text-anchor="middle" x="188.5" y="-114.3" font-family="Times,serif" font-size="14.00">input:</text>
<polyline fill="none" stroke="black" points="161,-106.5 216,-106.5 "/>
<text text-anchor="middle" x="188.5" y="-91.3" font-family="Times,serif" font-size="14.00">output:</text>
<polyline fill="none" stroke="black" points="216,-83.5 216,-129.5 "/>
<text text-anchor="middle" x="268" y="-114.3" font-family="Times,serif" font-size="14.00">(None, 16)</text>
<polyline fill="none" stroke="black" points="216,-106.5 320,-106.5 "/>
<text text-anchor="middle" x="268" y="-91.3" font-family="Times,serif" font-size="14.00">(None, 16, 100)</text>
</g>
<!-- 140226647222704&#45;&gt;140225291639720 -->
<g id="edge1" class="edge"><title>140226647222704&#45;&gt;140225291639720</title>
<path fill="none" stroke="black" d="M160,-166.366C160,-158.152 160,-148.658 160,-139.725"/>
<polygon fill="black" stroke="black" points="163.5,-139.607 160,-129.607 156.5,-139.607 163.5,-139.607"/>
</g>
<!-- 140225938287696 -->
<g id="node3" class="node"><title>140225938287696</title>
<polygon fill="none" stroke="black" points="38.5,-0.5 38.5,-46.5 281.5,-46.5 281.5,-0.5 38.5,-0.5"/>
<text text-anchor="middle" x="80.5" y="-19.8" font-family="Times,serif" font-size="14.00">gru_1: GRU</text>
<polyline fill="none" stroke="black" points="122.5,-0.5 122.5,-46.5 "/>
<text text-anchor="middle" x="150" y="-31.3" font-family="Times,serif" font-size="14.00">input:</text>
<polyline fill="none" stroke="black" points="122.5,-23.5 177.5,-23.5 "/>
<text text-anchor="middle" x="150" y="-8.3" font-family="Times,serif" font-size="14.00">output:</text>
<polyline fill="none" stroke="black" points="177.5,-0.5 177.5,-46.5 "/>
<text text-anchor="middle" x="229.5" y="-31.3" font-family="Times,serif" font-size="14.00">(None, 16, 100)</text>
<polyline fill="none" stroke="black" points="177.5,-23.5 281.5,-23.5 "/>
<text text-anchor="middle" x="229.5" y="-8.3" font-family="Times,serif" font-size="14.00">(None, 256)</text>
</g>
<!-- 140225291639720&#45;&gt;140225938287696 -->
<g id="edge2" class="edge"><title>140225291639720&#45;&gt;140225938287696</title>
<path fill="none" stroke="black" d="M160,-83.3664C160,-75.1516 160,-65.6579 160,-56.7252"/>
<polygon fill="black" stroke="black" points="163.5,-56.6068 160,-46.6068 156.5,-56.6069 163.5,-56.6068"/>
</g>
</g>
</svg>
