<?xml version="1.0" encoding="UTF-8" standalone="no"?>
<!DOCTYPE svg PUBLIC "-//W3C//DTD SVG 1.1//EN"
 "http://www.w3.org/Graphics/SVG/1.1/DTD/svg11.dtd">
<!-- Generated by graphviz version 2.38.0 (20140413.2041)
 -->
<!-- Title: G Pages: 1 -->
<svg width="277pt" height="138pt"
 viewBox="0.00 0.00 277.00 138.00" xmlns="http://www.w3.org/2000/svg" xmlns:xlink="http://www.w3.org/1999/xlink">
<g id="graph0" class="graph" transform="scale(1 1) rotate(0) translate(4 134)">
<title>G</title>
<polygon fill="white" stroke="none" points="-4,4 -4,-134 273,-134 273,4 -4,4"/>
<!-- 140225938011360 -->
<g id="node1" class="node"><title>140225938011360</title>
<polygon fill="none" stroke="black" points="0,-83.5 0,-129.5 269,-129.5 269,-83.5 0,-83.5"/>
<text text-anchor="middle" x="62.5" y="-102.8" font-family="Times,serif" font-size="14.00">input_1: InputLayer</text>
<polyline fill="none" stroke="black" points="125,-83.5 125,-129.5 "/>
<text text-anchor="middle" x="152.5" y="-114.3" font-family="Times,serif" font-size="14.00">input:</text>
<polyline fill="none" stroke="black" points="125,-106.5 180,-106.5 "/>
<text text-anchor="middle" x="152.5" y="-91.3" font-family="Times,serif" font-size="14.00">output:</text>
<polyline fill="none" stroke="black" points="180,-83.5 180,-129.5 "/>
<text text-anchor="middle" x="224.5" y="-114.3" font-family="Times,serif" font-size="14.00">(None, 2048)</text>
<polyline fill="none" stroke="black" points="180,-106.5 269,-106.5 "/>
<text text-anchor="middle" x="224.5" y="-91.3" font-family="Times,serif" font-size="14.00">(None, 2048)</text>
</g>
<!-- 140225291639496 -->
<g id="node2" class="node"><title>140225291639496</title>
<polygon fill="none" stroke="black" points="11.5,-0.5 11.5,-46.5 257.5,-46.5 257.5,-0.5 11.5,-0.5"/>
<text text-anchor="middle" x="62.5" y="-19.8" font-family="Times,serif" font-size="14.00">dense_1: Dense</text>
<polyline fill="none" stroke="black" points="113.5,-0.5 113.5,-46.5 "/>
<text text-anchor="middle" x="141" y="-31.3" font-family="Times,serif" font-size="14.00">input:</text>
<polyline fill="none" stroke="black" points="113.5,-23.5 168.5,-23.5 "/>
<text text-anchor="middle" x="141" y="-8.3" font-family="Times,serif" font-size="14.00">output:</text>
<polyline fill="none" stroke="black" points="168.5,-0.5 168.5,-46.5 "/>
<text text-anchor="middle" x="213" y="-31.3" font-family="Times,serif" font-size="14.00">(None, 2048)</text>
<polyline fill="none" stroke="black" points="168.5,-23.5 257.5,-23.5 "/>
<text text-anchor="middle" x="213" y="-8.3" font-family="Times,serif" font-size="14.00">(None, 256)</text>
</g>
<!-- 140225938011360&#45;&gt;140225291639496 -->
<g id="edge1" class="edge"><title>140225938011360&#45;&gt;140225291639496</title>
<path fill="none" stroke="black" d="M134.5,-83.3664C134.5,-75.1516 134.5,-65.6579 134.5,-56.7252"/>
<polygon fill="black" stroke="black" points="138,-56.6068 134.5,-46.6068 131,-56.6069 138,-56.6068"/>
</g>
</g>
</svg>
