<?xml version="1.0" encoding="utf-8" standalone="no"?>
<!DOCTYPE svg PUBLIC "-//W3C//DTD SVG 1.1//EN"
  "http://www.w3.org/Graphics/SVG/1.1/DTD/svg11.dtd">
<!-- Created with matplotlib (http://matplotlib.org/) -->
<svg height="345pt" version="1.1" viewBox="0 0 460 345" width="460pt" xmlns="http://www.w3.org/2000/svg" xmlns:xlink="http://www.w3.org/1999/xlink">
 <defs>
  <style type="text/css">
*{stroke-linecap:butt;stroke-linejoin:round;}
  </style>
 </defs>
 <g id="figure_1">
  <g id="patch_1">
   <path d="M 0 345.6 
L 460.8 345.6 
L 460.8 0 
L 0 0 
z
" style="fill:#ffffff;"/>
  </g>
  <g id="axes_1">
   <g id="patch_2">
    <path d="M 57.6 307.584 
L 414.72 307.584 
L 414.72 41.472 
L 57.6 41.472 
z
" style="fill:#ffffff;"/>
   </g>
   <g id="matplotlib.axis_1">
    <g id="xtick_1">
     <g id="line2d_1">
      <defs>
       <path d="M 0 0 
L 0 3.5 
" id="me5ed1a33dd" style="stroke:#000000;stroke-width:0.8;"/>
      </defs>
      <g>
       <use style="stroke:#000000;stroke-width:0.8;" x="73.832727" xlink:href="#me5ed1a33dd" y="307.584"/>
      </g>
     </g>
     <g id="text_1">
      <!-- 0 -->
      <defs>
       <path d="M 31.78125 66.40625 
Q 24.171875 66.40625 20.328125 58.90625 
Q 16.5 51.421875 16.5 36.375 
Q 16.5 21.390625 20.328125 13.890625 
Q 24.171875 6.390625 31.78125 6.390625 
Q 39.453125 6.390625 43.28125 13.890625 
Q 47.125 21.390625 47.125 36.375 
Q 47.125 51.421875 43.28125 58.90625 
Q 39.453125 66.40625 31.78125 66.40625 
z
M 31.78125 74.21875 
Q 44.046875 74.21875 50.515625 64.515625 
Q 56.984375 54.828125 56.984375 36.375 
Q 56.984375 17.96875 50.515625 8.265625 
Q 44.046875 -1.421875 31.78125 -1.421875 
Q 19.53125 -1.421875 13.0625 8.265625 
Q 6.59375 17.96875 6.59375 36.375 
Q 6.59375 54.828125 13.0625 64.515625 
Q 19.53125 74.21875 31.78125 74.21875 
z
" id="DejaVuSans-30"/>
      </defs>
      <g transform="translate(70.651477 322.182437)scale(0.1 -0.1)">
       <use xlink:href="#DejaVuSans-30"/>
      </g>
     </g>
    </g>
    <g id="xtick_2">
     <g id="line2d_2">
      <g>
       <use style="stroke:#000000;stroke-width:0.8;" x="138.893758" xlink:href="#me5ed1a33dd" y="307.584"/>
      </g>
     </g>
     <g id="text_2">
      <!-- 100 -->
      <defs>
       <path d="M 12.40625 8.296875 
L 28.515625 8.296875 
L 28.515625 63.921875 
L 10.984375 60.40625 
L 10.984375 69.390625 
L 28.421875 72.90625 
L 38.28125 72.90625 
L 38.28125 8.296875 
L 54.390625 8.296875 
L 54.390625 0 
L 12.40625 0 
z
" id="DejaVuSans-31"/>
      </defs>
      <g transform="translate(129.350008 322.182437)scale(0.1 -0.1)">
       <use xlink:href="#DejaVuSans-31"/>
       <use x="63.623047" xlink:href="#DejaVuSans-30"/>
       <use x="127.246094" xlink:href="#DejaVuSans-30"/>
      </g>
     </g>
    </g>
    <g id="xtick_3">
     <g id="line2d_3">
      <g>
       <use style="stroke:#000000;stroke-width:0.8;" x="203.95479" xlink:href="#me5ed1a33dd" y="307.584"/>
      </g>
     </g>
     <g id="text_3">
      <!-- 200 -->
      <defs>
       <path d="M 19.1875 8.296875 
L 53.609375 8.296875 
L 53.609375 0 
L 7.328125 0 
L 7.328125 8.296875 
Q 12.9375 14.109375 22.625 23.890625 
Q 32.328125 33.6875 34.8125 36.53125 
Q 39.546875 41.84375 41.421875 45.53125 
Q 43.3125 49.21875 43.3125 52.78125 
Q 43.3125 58.59375 39.234375 62.25 
Q 35.15625 65.921875 28.609375 65.921875 
Q 23.96875 65.921875 18.8125 64.3125 
Q 13.671875 62.703125 7.8125 59.421875 
L 7.8125 69.390625 
Q 13.765625 71.78125 18.9375 73 
Q 24.125 74.21875 28.421875 74.21875 
Q 39.75 74.21875 46.484375 68.546875 
Q 53.21875 62.890625 53.21875 53.421875 
Q 53.21875 48.921875 51.53125 44.890625 
Q 49.859375 40.875 45.40625 35.40625 
Q 44.1875 33.984375 37.640625 27.21875 
Q 31.109375 20.453125 19.1875 8.296875 
z
" id="DejaVuSans-32"/>
      </defs>
      <g transform="translate(194.41104 322.182437)scale(0.1 -0.1)">
       <use xlink:href="#DejaVuSans-32"/>
       <use x="63.623047" xlink:href="#DejaVuSans-30"/>
       <use x="127.246094" xlink:href="#DejaVuSans-30"/>
      </g>
     </g>
    </g>
    <g id="xtick_4">
     <g id="line2d_4">
      <g>
       <use style="stroke:#000000;stroke-width:0.8;" x="269.015821" xlink:href="#me5ed1a33dd" y="307.584"/>
      </g>
     </g>
     <g id="text_4">
      <!-- 300 -->
      <defs>
       <path d="M 40.578125 39.3125 
Q 47.65625 37.796875 51.625 33 
Q 55.609375 28.21875 55.609375 21.1875 
Q 55.609375 10.40625 48.1875 4.484375 
Q 40.765625 -1.421875 27.09375 -1.421875 
Q 22.515625 -1.421875 17.65625 -0.515625 
Q 12.796875 0.390625 7.625 2.203125 
L 7.625 11.71875 
Q 11.71875 9.328125 16.59375 8.109375 
Q 21.484375 6.890625 26.8125 6.890625 
Q 36.078125 6.890625 40.9375 10.546875 
Q 45.796875 14.203125 45.796875 21.1875 
Q 45.796875 27.640625 41.28125 31.265625 
Q 36.765625 34.90625 28.71875 34.90625 
L 20.21875 34.90625 
L 20.21875 43.015625 
L 29.109375 43.015625 
Q 36.375 43.015625 40.234375 45.921875 
Q 44.09375 48.828125 44.09375 54.296875 
Q 44.09375 59.90625 40.109375 62.90625 
Q 36.140625 65.921875 28.71875 65.921875 
Q 24.65625 65.921875 20.015625 65.03125 
Q 15.375 64.15625 9.8125 62.3125 
L 9.8125 71.09375 
Q 15.4375 72.65625 20.34375 73.4375 
Q 25.25 74.21875 29.59375 74.21875 
Q 40.828125 74.21875 47.359375 69.109375 
Q 53.90625 64.015625 53.90625 55.328125 
Q 53.90625 49.265625 50.4375 45.09375 
Q 46.96875 40.921875 40.578125 39.3125 
z
" id="DejaVuSans-33"/>
      </defs>
      <g transform="translate(259.472071 322.182437)scale(0.1 -0.1)">
       <use xlink:href="#DejaVuSans-33"/>
       <use x="63.623047" xlink:href="#DejaVuSans-30"/>
       <use x="127.246094" xlink:href="#DejaVuSans-30"/>
      </g>
     </g>
    </g>
    <g id="xtick_5">
     <g id="line2d_5">
      <g>
       <use style="stroke:#000000;stroke-width:0.8;" x="334.076852" xlink:href="#me5ed1a33dd" y="307.584"/>
      </g>
     </g>
     <g id="text_5">
      <!-- 400 -->
      <defs>
       <path d="M 37.796875 64.3125 
L 12.890625 25.390625 
L 37.796875 25.390625 
z
M 35.203125 72.90625 
L 47.609375 72.90625 
L 47.609375 25.390625 
L 58.015625 25.390625 
L 58.015625 17.1875 
L 47.609375 17.1875 
L 47.609375 0 
L 37.796875 0 
L 37.796875 17.1875 
L 4.890625 17.1875 
L 4.890625 26.703125 
z
" id="DejaVuSans-34"/>
      </defs>
      <g transform="translate(324.533102 322.182437)scale(0.1 -0.1)">
       <use xlink:href="#DejaVuSans-34"/>
       <use x="63.623047" xlink:href="#DejaVuSans-30"/>
       <use x="127.246094" xlink:href="#DejaVuSans-30"/>
      </g>
     </g>
    </g>
    <g id="xtick_6">
     <g id="line2d_6">
      <g>
       <use style="stroke:#000000;stroke-width:0.8;" x="399.137883" xlink:href="#me5ed1a33dd" y="307.584"/>
      </g>
     </g>
     <g id="text_6">
      <!-- 500 -->
      <defs>
       <path d="M 10.796875 72.90625 
L 49.515625 72.90625 
L 49.515625 64.59375 
L 19.828125 64.59375 
L 19.828125 46.734375 
Q 21.96875 47.46875 24.109375 47.828125 
Q 26.265625 48.1875 28.421875 48.1875 
Q 40.625 48.1875 47.75 41.5 
Q 54.890625 34.8125 54.890625 23.390625 
Q 54.890625 11.625 47.5625 5.09375 
Q 40.234375 -1.421875 26.90625 -1.421875 
Q 22.3125 -1.421875 17.546875 -0.640625 
Q 12.796875 0.140625 7.71875 1.703125 
L 7.71875 11.625 
Q 12.109375 9.234375 16.796875 8.0625 
Q 21.484375 6.890625 26.703125 6.890625 
Q 35.15625 6.890625 40.078125 11.328125 
Q 45.015625 15.765625 45.015625 23.390625 
Q 45.015625 31 40.078125 35.4375 
Q 35.15625 39.890625 26.703125 39.890625 
Q 22.75 39.890625 18.8125 39.015625 
Q 14.890625 38.140625 10.796875 36.28125 
z
" id="DejaVuSans-35"/>
      </defs>
      <g transform="translate(389.594133 322.182437)scale(0.1 -0.1)">
       <use xlink:href="#DejaVuSans-35"/>
       <use x="63.623047" xlink:href="#DejaVuSans-30"/>
       <use x="127.246094" xlink:href="#DejaVuSans-30"/>
      </g>
     </g>
    </g>
    <g id="text_7">
     <!-- epoch -->
     <defs>
      <path d="M 56.203125 29.59375 
L 56.203125 25.203125 
L 14.890625 25.203125 
Q 15.484375 15.921875 20.484375 11.0625 
Q 25.484375 6.203125 34.421875 6.203125 
Q 39.59375 6.203125 44.453125 7.46875 
Q 49.3125 8.734375 54.109375 11.28125 
L 54.109375 2.78125 
Q 49.265625 0.734375 44.1875 -0.34375 
Q 39.109375 -1.421875 33.890625 -1.421875 
Q 20.796875 -1.421875 13.15625 6.1875 
Q 5.515625 13.8125 5.515625 26.8125 
Q 5.515625 40.234375 12.765625 48.109375 
Q 20.015625 56 32.328125 56 
Q 43.359375 56 49.78125 48.890625 
Q 56.203125 41.796875 56.203125 29.59375 
z
M 47.21875 32.234375 
Q 47.125 39.59375 43.09375 43.984375 
Q 39.0625 48.390625 32.421875 48.390625 
Q 24.90625 48.390625 20.390625 44.140625 
Q 15.875 39.890625 15.1875 32.171875 
z
" id="DejaVuSans-65"/>
      <path d="M 18.109375 8.203125 
L 18.109375 -20.796875 
L 9.078125 -20.796875 
L 9.078125 54.6875 
L 18.109375 54.6875 
L 18.109375 46.390625 
Q 20.953125 51.265625 25.265625 53.625 
Q 29.59375 56 35.59375 56 
Q 45.5625 56 51.78125 48.09375 
Q 58.015625 40.1875 58.015625 27.296875 
Q 58.015625 14.40625 51.78125 6.484375 
Q 45.5625 -1.421875 35.59375 -1.421875 
Q 29.59375 -1.421875 25.265625 0.953125 
Q 20.953125 3.328125 18.109375 8.203125 
z
M 48.6875 27.296875 
Q 48.6875 37.203125 44.609375 42.84375 
Q 40.53125 48.484375 33.40625 48.484375 
Q 26.265625 48.484375 22.1875 42.84375 
Q 18.109375 37.203125 18.109375 27.296875 
Q 18.109375 17.390625 22.1875 11.75 
Q 26.265625 6.109375 33.40625 6.109375 
Q 40.53125 6.109375 44.609375 11.75 
Q 48.6875 17.390625 48.6875 27.296875 
z
" id="DejaVuSans-70"/>
      <path d="M 30.609375 48.390625 
Q 23.390625 48.390625 19.1875 42.75 
Q 14.984375 37.109375 14.984375 27.296875 
Q 14.984375 17.484375 19.15625 11.84375 
Q 23.34375 6.203125 30.609375 6.203125 
Q 37.796875 6.203125 41.984375 11.859375 
Q 46.1875 17.53125 46.1875 27.296875 
Q 46.1875 37.015625 41.984375 42.703125 
Q 37.796875 48.390625 30.609375 48.390625 
z
M 30.609375 56 
Q 42.328125 56 49.015625 48.375 
Q 55.71875 40.765625 55.71875 27.296875 
Q 55.71875 13.875 49.015625 6.21875 
Q 42.328125 -1.421875 30.609375 -1.421875 
Q 18.84375 -1.421875 12.171875 6.21875 
Q 5.515625 13.875 5.515625 27.296875 
Q 5.515625 40.765625 12.171875 48.375 
Q 18.84375 56 30.609375 56 
z
" id="DejaVuSans-6f"/>
      <path d="M 48.78125 52.59375 
L 48.78125 44.1875 
Q 44.96875 46.296875 41.140625 47.34375 
Q 37.3125 48.390625 33.40625 48.390625 
Q 24.65625 48.390625 19.8125 42.84375 
Q 14.984375 37.3125 14.984375 27.296875 
Q 14.984375 17.28125 19.8125 11.734375 
Q 24.65625 6.203125 33.40625 6.203125 
Q 37.3125 6.203125 41.140625 7.25 
Q 44.96875 8.296875 48.78125 10.40625 
L 48.78125 2.09375 
Q 45.015625 0.34375 40.984375 -0.53125 
Q 36.96875 -1.421875 32.421875 -1.421875 
Q 20.0625 -1.421875 12.78125 6.34375 
Q 5.515625 14.109375 5.515625 27.296875 
Q 5.515625 40.671875 12.859375 48.328125 
Q 20.21875 56 33.015625 56 
Q 37.15625 56 41.109375 55.140625 
Q 45.0625 54.296875 48.78125 52.59375 
z
" id="DejaVuSans-63"/>
      <path d="M 54.890625 33.015625 
L 54.890625 0 
L 45.90625 0 
L 45.90625 32.71875 
Q 45.90625 40.484375 42.875 44.328125 
Q 39.84375 48.1875 33.796875 48.1875 
Q 26.515625 48.1875 22.3125 43.546875 
Q 18.109375 38.921875 18.109375 30.90625 
L 18.109375 0 
L 9.078125 0 
L 9.078125 75.984375 
L 18.109375 75.984375 
L 18.109375 46.1875 
Q 21.34375 51.125 25.703125 53.5625 
Q 30.078125 56 35.796875 56 
Q 45.21875 56 50.046875 50.171875 
Q 54.890625 44.34375 54.890625 33.015625 
z
" id="DejaVuSans-68"/>
     </defs>
     <g transform="translate(220.931875 335.860562)scale(0.1 -0.1)">
      <use xlink:href="#DejaVuSans-65"/>
      <use x="61.523438" xlink:href="#DejaVuSans-70"/>
      <use x="125" xlink:href="#DejaVuSans-6f"/>
      <use x="186.181641" xlink:href="#DejaVuSans-63"/>
      <use x="241.162109" xlink:href="#DejaVuSans-68"/>
     </g>
    </g>
   </g>
   <g id="matplotlib.axis_2">
    <g id="ytick_1">
     <g id="line2d_7">
      <defs>
       <path d="M 0 0 
L -3.5 0 
" id="mae0fa1c714" style="stroke:#000000;stroke-width:0.8;"/>
      </defs>
      <g>
       <use style="stroke:#000000;stroke-width:0.8;" x="57.6" xlink:href="#mae0fa1c714" y="303.626047"/>
      </g>
     </g>
     <g id="text_8">
      <!-- 0 -->
      <g transform="translate(44.2375 307.425266)scale(0.1 -0.1)">
       <use xlink:href="#DejaVuSans-30"/>
      </g>
     </g>
    </g>
    <g id="ytick_2">
     <g id="line2d_8">
      <g>
       <use style="stroke:#000000;stroke-width:0.8;" x="57.6" xlink:href="#mae0fa1c714" y="261.047786"/>
      </g>
     </g>
     <g id="text_9">
      <!-- 5 -->
      <g transform="translate(44.2375 264.847005)scale(0.1 -0.1)">
       <use xlink:href="#DejaVuSans-35"/>
      </g>
     </g>
    </g>
    <g id="ytick_3">
     <g id="line2d_9">
      <g>
       <use style="stroke:#000000;stroke-width:0.8;" x="57.6" xlink:href="#mae0fa1c714" y="218.469525"/>
      </g>
     </g>
     <g id="text_10">
      <!-- 10 -->
      <g transform="translate(37.875 222.268744)scale(0.1 -0.1)">
       <use xlink:href="#DejaVuSans-31"/>
       <use x="63.623047" xlink:href="#DejaVuSans-30"/>
      </g>
     </g>
    </g>
    <g id="ytick_4">
     <g id="line2d_10">
      <g>
       <use style="stroke:#000000;stroke-width:0.8;" x="57.6" xlink:href="#mae0fa1c714" y="175.891264"/>
      </g>
     </g>
     <g id="text_11">
      <!-- 15 -->
      <g transform="translate(37.875 179.690483)scale(0.1 -0.1)">
       <use xlink:href="#DejaVuSans-31"/>
       <use x="63.623047" xlink:href="#DejaVuSans-35"/>
      </g>
     </g>
    </g>
    <g id="ytick_5">
     <g id="line2d_11">
      <g>
       <use style="stroke:#000000;stroke-width:0.8;" x="57.6" xlink:href="#mae0fa1c714" y="133.313003"/>
      </g>
     </g>
     <g id="text_12">
      <!-- 20 -->
      <g transform="translate(37.875 137.112222)scale(0.1 -0.1)">
       <use xlink:href="#DejaVuSans-32"/>
       <use x="63.623047" xlink:href="#DejaVuSans-30"/>
      </g>
     </g>
    </g>
    <g id="ytick_6">
     <g id="line2d_12">
      <g>
       <use style="stroke:#000000;stroke-width:0.8;" x="57.6" xlink:href="#mae0fa1c714" y="90.734742"/>
      </g>
     </g>
     <g id="text_13">
      <!-- 25 -->
      <g transform="translate(37.875 94.533961)scale(0.1 -0.1)">
       <use xlink:href="#DejaVuSans-32"/>
       <use x="63.623047" xlink:href="#DejaVuSans-35"/>
      </g>
     </g>
    </g>
    <g id="ytick_7">
     <g id="line2d_13">
      <g>
       <use style="stroke:#000000;stroke-width:0.8;" x="57.6" xlink:href="#mae0fa1c714" y="48.156481"/>
      </g>
     </g>
     <g id="text_14">
      <!-- 30 -->
      <g transform="translate(37.875 51.9557)scale(0.1 -0.1)">
       <use xlink:href="#DejaVuSans-33"/>
       <use x="63.623047" xlink:href="#DejaVuSans-30"/>
      </g>
     </g>
    </g>
    <g id="text_15">
     <!-- loss -->
     <defs>
      <path d="M 9.421875 75.984375 
L 18.40625 75.984375 
L 18.40625 0 
L 9.421875 0 
z
" id="DejaVuSans-6c"/>
      <path d="M 44.28125 53.078125 
L 44.28125 44.578125 
Q 40.484375 46.53125 36.375 47.5 
Q 32.28125 48.484375 27.875 48.484375 
Q 21.1875 48.484375 17.84375 46.4375 
Q 14.5 44.390625 14.5 40.28125 
Q 14.5 37.15625 16.890625 35.375 
Q 19.28125 33.59375 26.515625 31.984375 
L 29.59375 31.296875 
Q 39.15625 29.25 43.1875 25.515625 
Q 47.21875 21.78125 47.21875 15.09375 
Q 47.21875 7.46875 41.1875 3.015625 
Q 35.15625 -1.421875 24.609375 -1.421875 
Q 20.21875 -1.421875 15.453125 -0.5625 
Q 10.6875 0.296875 5.421875 2 
L 5.421875 11.28125 
Q 10.40625 8.6875 15.234375 7.390625 
Q 20.0625 6.109375 24.8125 6.109375 
Q 31.15625 6.109375 34.5625 8.28125 
Q 37.984375 10.453125 37.984375 14.40625 
Q 37.984375 18.0625 35.515625 20.015625 
Q 33.0625 21.96875 24.703125 23.78125 
L 21.578125 24.515625 
Q 13.234375 26.265625 9.515625 29.90625 
Q 5.8125 33.546875 5.8125 39.890625 
Q 5.8125 47.609375 11.28125 51.796875 
Q 16.75 56 26.8125 56 
Q 31.78125 56 36.171875 55.265625 
Q 40.578125 54.546875 44.28125 53.078125 
z
" id="DejaVuSans-73"/>
     </defs>
     <g transform="translate(31.795313 184.185812)rotate(-90)scale(0.1 -0.1)">
      <use xlink:href="#DejaVuSans-6c"/>
      <use x="27.783203" xlink:href="#DejaVuSans-6f"/>
      <use x="88.964844" xlink:href="#DejaVuSans-73"/>
      <use x="141.064453" xlink:href="#DejaVuSans-73"/>
     </g>
    </g>
   </g>
   <g id="line2d_14">
    <path clip-path="url(#pd5e3e1da58)" d="M 73.832727 295.488 
L 74.483338 295.329111 
L 79.03761 295.255232 
L 398.487273 295.175016 
L 398.487273 295.175016 
" style="fill:none;stroke:#1f77b4;stroke-linecap:square;stroke-width:1.5;"/>
   </g>
   <g id="line2d_15">
    <path clip-path="url(#pd5e3e1da58)" d="M 73.832727 295.360752 
L 77.736389 295.285485 
L 82.941272 295.270978 
L 103.110191 295.247978 
L 111.568125 295.252982 
L 124.580332 295.247936 
L 148.002303 295.244193 
L 203.304179 295.246086 
L 218.918827 295.247137 
L 232.581643 295.248566 
L 257.304835 295.239484 
L 264.461549 295.243479 
L 316.510373 295.245455 
L 398.487273 295.244025 
L 398.487273 295.244025 
" style="fill:none;stroke:#ff7f0e;stroke-linecap:square;stroke-width:1.5;"/>
   </g>
   <g id="line2d_16">
    <path clip-path="url(#pd5e3e1da58)" d="M 73.832727 53.568 
L 74.483338 159.975363 
L 75.133948 172.92291 
L 76.435169 191.598617 
L 77.085779 192.836107 
L 79.03761 207.028951 
L 80.33883 207.822173 
L 80.989441 210.063022 
L 81.640051 214.684469 
L 82.290661 214.943762 
L 82.941272 214.908171 
L 83.591882 217.882153 
L 84.242492 219.817953 
L 84.893103 220.945136 
L 85.543713 220.241358 
L 86.194323 220.042814 
L 86.844934 221.96553 
L 88.146154 224.507383 
L 88.796764 225.881922 
L 89.447375 228.019029 
L 90.097985 225.7005 
L 90.748595 226.91691 
L 91.399206 229.499123 
L 92.049816 228.937414 
L 92.700426 229.560918 
L 93.351037 229.332259 
L 94.001647 230.568895 
L 94.652257 230.223631 
L 95.302868 231.800926 
L 95.953478 232.101942 
L 96.604088 230.375772 
L 97.254698 233.90062 
L 97.905309 232.995285 
L 98.555919 232.528138 
L 99.206529 234.386254 
L 99.85714 233.651377 
L 100.50775 233.875568 
L 101.15836 233.330128 
L 102.459581 236.416196 
L 103.110191 235.865073 
L 104.411412 237.044602 
L 105.062022 238.451942 
L 105.712633 237.799414 
L 106.363243 236.836729 
L 107.013853 240.283132 
L 107.664463 240.927198 
L 108.315074 239.920079 
L 108.965684 237.699765 
L 109.616294 239.546175 
L 110.266905 240.059077 
L 110.917515 237.934219 
L 111.568125 238.530638 
L 112.218736 239.516554 
L 112.869346 242.475413 
L 113.519956 241.712571 
L 114.170567 241.168017 
L 114.821177 241.349046 
L 115.471787 240.850326 
L 116.122398 242.725706 
L 116.773008 241.17732 
L 117.423618 241.751083 
L 118.074228 240.863663 
L 119.375449 243.518089 
L 120.026059 240.967044 
L 121.32728 244.07375 
L 121.97789 242.942797 
L 122.628501 244.754703 
L 123.279111 243.607689 
L 123.929721 244.288037 
L 124.580332 242.481942 
L 125.230942 243.391214 
L 125.881552 244.087087 
L 126.532163 243.448186 
L 127.182773 245.165872 
L 127.833383 244.801834 
L 128.483993 245.174986 
L 129.134604 244.295762 
L 129.785214 247.05411 
L 130.435824 245.911705 
L 131.086435 245.814122 
L 131.737045 245.344292 
L 132.387655 246.989623 
L 133.038266 247.385128 
L 133.688876 245.063143 
L 134.339486 247.156431 
L 134.990097 244.686697 
L 135.640707 245.264342 
L 136.291317 248.09152 
L 136.941927 245.439057 
L 137.592538 246.877293 
L 138.243148 246.600542 
L 138.893758 248.086892 
L 139.544369 248.413652 
L 140.194979 246.128874 
L 140.845589 246.57576 
L 141.4962 248.146097 
L 142.14681 247.373715 
L 142.79742 249.334072 
L 143.448031 247.824779 
L 144.098641 247.336986 
L 144.749251 248.91335 
L 145.399862 248.786032 
L 146.050472 248.49674 
L 146.701082 248.472789 
L 147.351692 249.376968 
L 148.652913 248.162762 
L 149.954134 249.413907 
L 150.604744 247.388238 
L 151.255354 249.851564 
L 151.905965 250.046998 
L 152.556575 249.335219 
L 153.207185 249.767001 
L 153.857796 249.898297 
L 155.159016 249.308006 
L 155.809627 249.418736 
L 157.110847 250.523324 
L 157.761457 250.637405 
L 158.412068 249.643865 
L 159.062678 250.360786 
L 160.363899 250.512803 
L 161.014509 249.611455 
L 161.665119 250.76246 
L 162.31573 251.173844 
L 162.96634 252.464449 
L 163.61695 250.448505 
L 164.267561 250.689868 
L 164.918171 250.046073 
L 165.568781 249.908059 
L 166.219392 252.687856 
L 166.870002 250.798183 
L 167.520612 251.6322 
L 168.171222 250.891252 
L 168.821833 254.567194 
L 169.472443 251.783016 
L 170.123053 250.906918 
L 170.773664 252.758595 
L 171.424274 251.966217 
L 172.725495 251.624953 
L 173.376105 252.657366 
L 174.026715 253.222061 
L 174.677326 250.385461 
L 175.327936 251.812692 
L 175.978546 251.619466 
L 176.629156 252.856102 
L 177.279767 253.439186 
L 178.580987 251.70559 
L 179.231598 252.451713 
L 179.882208 252.575695 
L 180.532818 251.721753 
L 181.183429 253.245714 
L 181.834039 252.184463 
L 182.484649 252.391855 
L 183.13526 251.309063 
L 183.78587 252.674241 
L 184.43648 253.04885 
L 185.087091 253.1061 
L 185.737701 252.634357 
L 186.388311 255.289684 
L 187.038921 256.212218 
L 187.689532 252.420041 
L 188.340142 252.340273 
L 188.990752 252.781013 
L 189.641363 252.157232 
L 190.291973 253.183143 
L 190.942583 252.912268 
L 191.593194 253.546475 
L 192.243804 252.739671 
L 192.894414 253.148345 
L 193.545025 254.042056 
L 194.846245 252.933552 
L 195.496856 253.904968 
L 196.147466 251.600175 
L 196.798076 253.093981 
L 197.448686 253.463029 
L 198.099297 252.647565 
L 198.749907 254.189656 
L 199.400517 253.671466 
L 200.051128 254.594547 
L 200.701738 254.755779 
L 201.352348 253.148716 
L 202.002959 252.587296 
L 202.653569 252.999889 
L 203.304179 254.324642 
L 203.95479 254.724594 
L 204.6054 254.296124 
L 205.25601 254.382518 
L 206.557231 255.003972 
L 207.207841 253.775206 
L 207.858451 254.90972 
L 208.509062 252.61073 
L 209.159672 253.83637 
L 209.810282 254.040632 
L 210.460893 255.352359 
L 211.111503 253.488738 
L 211.762113 254.222329 
L 212.412724 255.282565 
L 213.063334 255.043701 
L 213.713944 254.96715 
L 214.364555 255.063335 
L 215.015165 257.080195 
L 215.665775 254.703725 
L 216.316385 254.652972 
L 216.966996 255.919352 
L 217.617606 254.257432 
L 218.268216 253.641899 
L 218.918827 257.312839 
L 219.569437 255.70078 
L 220.220047 255.234301 
L 221.521268 256.249126 
L 222.171878 254.740645 
L 222.822489 256.762247 
L 223.473099 255.457511 
L 224.123709 255.543286 
L 224.77432 253.478485 
L 225.42493 255.376173 
L 226.72615 256.554542 
L 227.376761 255.572547 
L 228.027371 257.178077 
L 228.677981 255.880727 
L 229.328592 256.098739 
L 229.979202 257.284516 
L 230.629812 256.756128 
L 231.280423 255.842944 
L 231.931033 256.963374 
L 232.581643 256.102254 
L 233.232254 256.115504 
L 233.882864 256.839861 
L 234.533474 258.089476 
L 235.184085 256.954852 
L 235.834695 256.224897 
L 236.485305 256.334318 
L 237.135915 255.356818 
L 238.437136 258.859748 
L 239.087746 256.048139 
L 239.738357 255.063705 
L 240.388967 257.641876 
L 241.039577 255.583494 
L 241.690188 258.680689 
L 242.991408 255.480168 
L 243.642019 257.501146 
L 244.292629 256.514024 
L 244.943239 256.307472 
L 245.59385 257.570127 
L 246.24446 257.91231 
L 246.89507 255.838499 
L 248.196291 257.808611 
L 248.846901 258.305708 
L 249.497511 257.91582 
L 250.798732 255.028343 
L 251.449342 258.727667 
L 252.099953 258.395065 
L 252.750563 258.696944 
L 253.401173 258.561456 
L 254.051784 258.293508 
L 254.702394 256.083271 
L 256.003615 258.847037 
L 256.654225 257.977814 
L 257.304835 257.54946 
L 257.955445 256.976699 
L 258.606056 257.292174 
L 259.256666 256.681565 
L 259.907276 256.585317 
L 260.557887 258.596206 
L 261.208497 258.610285 
L 261.859107 258.118756 
L 262.509718 257.858832 
L 263.160328 258.140928 
L 263.810938 259.428512 
L 264.461549 258.140298 
L 265.112159 259.753377 
L 265.762769 257.71128 
L 266.413379 257.510164 
L 267.06399 258.246307 
L 267.7146 257.89585 
L 268.36521 256.674515 
L 269.015821 256.204037 
L 269.666431 257.855753 
L 270.317041 258.652783 
L 270.967652 256.05978 
L 271.618262 258.395912 
L 272.268872 256.36198 
L 272.919483 256.638304 
L 273.570093 257.590193 
L 274.220703 259.154877 
L 274.871314 257.956953 
L 275.521924 257.076467 
L 276.172534 257.667125 
L 277.473755 257.621784 
L 278.124365 259.526475 
L 278.774975 259.847727 
L 279.425586 258.216813 
L 280.076196 258.054683 
L 280.726806 259.601515 
L 282.028027 259.115121 
L 282.678637 258.937869 
L 283.329248 257.048744 
L 283.979858 258.02686 
L 284.630468 258.605824 
L 285.281079 259.668269 
L 286.582299 260.611124 
L 287.232909 257.861327 
L 287.88352 259.818223 
L 288.53413 258.176303 
L 289.18474 257.66996 
L 289.835351 258.273805 
L 290.485961 258.422576 
L 291.136571 258.10482 
L 291.787182 258.237102 
L 292.437792 257.651282 
L 293.088402 258.370522 
L 293.739013 259.976296 
L 294.389623 259.720635 
L 295.040233 260.993992 
L 296.341454 259.328163 
L 296.992064 257.896625 
L 297.642674 259.272141 
L 298.293285 258.394751 
L 298.943895 258.734085 
L 299.594505 258.567823 
L 300.245116 259.550698 
L 300.895726 258.672646 
L 301.546336 258.292418 
L 302.196947 258.090063 
L 302.847557 261.06778 
L 303.498167 259.067392 
L 304.148778 261.060201 
L 304.799388 261.066858 
L 305.449998 259.313169 
L 306.100608 256.702073 
L 306.751219 258.138192 
L 307.401829 257.268734 
L 308.70305 260.297064 
L 309.35366 258.129067 
L 310.00427 257.855746 
L 310.654881 258.909728 
L 311.305491 258.448455 
L 311.956101 259.339223 
L 313.257322 260.304829 
L 313.907932 259.473432 
L 314.558543 260.843182 
L 315.209153 259.797852 
L 315.859763 258.518222 
L 316.510373 258.553134 
L 317.160984 258.277652 
L 317.811594 258.87181 
L 318.462204 259.180774 
L 319.112815 259.318124 
L 319.763425 258.250114 
L 320.414035 259.242637 
L 321.064646 261.203782 
L 321.715256 259.691547 
L 322.365866 258.98006 
L 323.016477 259.500748 
L 323.667087 262.361858 
L 324.317697 262.63569 
L 324.968308 261.462314 
L 325.618918 261.565401 
L 326.269528 260.772741 
L 326.920138 261.478403 
L 327.570749 260.816951 
L 328.221359 259.506141 
L 328.871969 259.253824 
L 329.52258 259.500159 
L 330.17319 260.423557 
L 330.8238 260.409483 
L 332.125021 262.159471 
L 332.775631 260.414524 
L 333.426242 261.088744 
L 334.076852 261.452465 
L 335.378073 261.033393 
L 336.028683 261.958928 
L 336.679293 260.215049 
L 337.329903 258.807953 
L 337.980514 261.625369 
L 338.631124 260.974087 
L 339.281734 261.69004 
L 339.932345 260.485086 
L 340.582955 260.723791 
L 341.233565 261.196854 
L 341.884176 259.765803 
L 342.534786 259.62697 
L 343.185396 261.162894 
L 343.836007 259.768933 
L 344.486617 259.617531 
L 345.137227 260.381524 
L 345.787837 261.423004 
L 346.438448 259.448475 
L 347.089058 258.180637 
L 347.739668 260.053051 
L 348.390279 260.932892 
L 349.040889 261.230382 
L 349.691499 260.198537 
L 350.34211 262.281131 
L 350.99272 262.134185 
L 351.64333 259.812559 
L 352.293941 259.617663 
L 352.944551 260.36227 
L 353.595161 259.506958 
L 354.245772 260.029785 
L 354.896382 260.909299 
L 355.546992 261.248887 
L 356.197602 261.1297 
L 356.848213 259.491039 
L 357.498823 261.695173 
L 358.149433 261.976529 
L 358.800044 262.439345 
L 359.450654 262.080473 
L 360.101264 260.553364 
L 360.751875 260.566829 
L 361.402485 261.007146 
L 362.053095 259.915436 
L 362.703706 260.444047 
L 363.354316 263.091016 
L 364.004926 260.229622 
L 364.655537 259.330483 
L 365.956757 260.576756 
L 366.607367 259.262955 
L 367.257978 260.611648 
L 367.908588 261.564961 
L 368.559198 259.862167 
L 369.209809 262.121517 
L 369.860419 261.147156 
L 370.511029 259.833737 
L 371.16164 261.386827 
L 371.81225 259.571016 
L 372.46286 262.044035 
L 373.113471 260.675052 
L 373.764081 260.392094 
L 374.414691 261.394634 
L 375.065302 263.095357 
L 376.366522 261.401903 
L 377.017132 260.908053 
L 377.667743 261.719075 
L 378.318353 261.431714 
L 380.270184 262.379448 
L 380.920794 262.208822 
L 381.571405 262.219359 
L 382.222015 260.810801 
L 382.872625 261.427206 
L 383.523236 259.767872 
L 384.173846 261.730048 
L 384.824456 261.820279 
L 385.475066 262.580296 
L 386.125677 261.285584 
L 386.776287 261.854301 
L 387.426897 261.99094 
L 388.077508 261.640462 
L 388.728118 261.723829 
L 389.378728 262.066054 
L 390.029339 262.770684 
L 390.679949 259.866811 
L 391.330559 261.239634 
L 391.98117 261.152965 
L 392.63178 262.464393 
L 393.28239 261.965765 
L 393.933001 261.72257 
L 394.583611 260.661743 
L 395.234221 261.161163 
L 395.884831 260.747107 
L 396.535442 260.118849 
L 397.186052 260.918271 
L 397.836662 260.719195 
L 398.487273 260.739185 
L 398.487273 260.739185 
" style="fill:none;stroke:#1f77b4;stroke-linecap:square;stroke-width:1.5;"/>
   </g>
   <g id="line2d_17">
    <path clip-path="url(#pd5e3e1da58)" d="M 73.832727 137.526694 
L 75.133948 170.887727 
L 75.784558 178.959792 
L 76.435169 171.687685 
L 77.085779 172.746472 
L 77.736389 184.635334 
L 78.386999 179.21593 
L 79.03761 178.993871 
L 79.68822 189.208242 
L 80.33883 184.797514 
L 80.989441 188.549382 
L 81.640051 197.129287 
L 82.290661 194.811659 
L 82.941272 191.583734 
L 83.591882 197.559066 
L 84.242492 195.897607 
L 84.893103 199.515906 
L 85.543713 196.58152 
L 86.194323 203.31607 
L 86.844934 197.507423 
L 87.495544 198.792823 
L 88.146154 200.800356 
L 88.796764 201.464005 
L 89.447375 201.135946 
L 90.097985 196.501868 
L 90.748595 202.11269 
L 91.399206 203.859843 
L 92.049816 200.923224 
L 92.700426 202.205101 
L 93.351037 197.684271 
L 94.001647 200.465957 
L 94.652257 206.097403 
L 95.302868 202.442108 
L 95.953478 201.667086 
L 96.604088 205.689155 
L 97.254698 204.570795 
L 97.905309 203.788165 
L 98.555919 206.163186 
L 99.206529 204.372203 
L 99.85714 199.830318 
L 100.50775 203.372507 
L 101.15836 205.500847 
L 101.808971 205.206309 
L 102.459581 205.444482 
L 103.110191 206.367548 
L 103.760802 203.227184 
L 104.411412 203.99371 
L 105.062022 203.341628 
L 105.712633 202.481592 
L 106.363243 206.401165 
L 107.013853 204.948644 
L 107.664463 205.526511 
L 108.315074 206.9885 
L 108.965684 205.206118 
L 109.616294 205.557802 
L 110.266905 205.620082 
L 110.917515 207.804907 
L 111.568125 204.227748 
L 112.218736 208.573239 
L 112.869346 207.793951 
L 113.519956 206.564371 
L 114.170567 206.626182 
L 115.471787 205.270423 
L 116.122398 207.275926 
L 116.773008 208.624271 
L 117.423618 208.887606 
L 118.074228 208.677084 
L 118.724839 208.165152 
L 119.375449 203.584294 
L 120.026059 209.846527 
L 120.67667 208.970848 
L 121.32728 207.156151 
L 121.97789 209.936394 
L 122.628501 208.524488 
L 123.279111 204.270334 
L 123.929721 206.03467 
L 124.580332 207.342812 
L 125.230942 205.602038 
L 125.881552 200.738273 
L 126.532163 204.945791 
L 127.182773 205.272599 
L 127.833383 208.247112 
L 128.483993 203.865488 
L 129.134604 207.626146 
L 129.785214 207.303275 
L 130.435824 203.925168 
L 131.086435 208.555622 
L 131.737045 205.283697 
L 132.387655 207.249799 
L 133.038266 206.397182 
L 133.688876 210.781062 
L 134.339486 205.900224 
L 134.990097 202.975179 
L 135.640707 204.527472 
L 136.291317 206.930788 
L 136.941927 205.408724 
L 137.592538 204.468526 
L 138.243148 208.566349 
L 138.893758 214.183848 
L 139.544369 209.53673 
L 140.845589 203.147513 
L 141.4962 207.966733 
L 142.14681 204.547949 
L 142.79742 205.133002 
L 143.448031 206.211499 
L 144.098641 205.323945 
L 144.749251 205.701934 
L 145.399862 207.976986 
L 146.050472 204.360104 
L 146.701082 207.182729 
L 147.351692 204.128777 
L 148.002303 208.842353 
L 148.652913 210.151567 
L 149.303523 208.558433 
L 149.954134 205.461355 
L 150.604744 204.997185 
L 151.255354 209.209786 
L 151.905965 201.513909 
L 152.556575 208.822685 
L 153.207185 206.28317 
L 153.857796 211.823086 
L 154.508406 209.414901 
L 155.159016 209.067717 
L 155.809627 210.142926 
L 156.460237 208.919434 
L 157.110847 207.116851 
L 157.761457 206.88983 
L 158.412068 209.266727 
L 159.062678 205.748123 
L 159.713288 208.17669 
L 160.363899 204.354512 
L 161.014509 207.365176 
L 161.665119 207.149119 
L 162.31573 208.377413 
L 162.96634 208.434296 
L 163.61695 204.577705 
L 164.267561 204.825103 
L 164.918171 205.68962 
L 165.568781 207.433623 
L 166.870002 204.507485 
L 167.520612 206.96569 
L 168.171222 205.100382 
L 168.821833 209.807451 
L 169.472443 208.771151 
L 170.773664 205.398776 
L 172.074884 204.219795 
L 172.725495 210.924208 
L 173.376105 210.030313 
L 174.026715 210.842814 
L 174.677326 206.763417 
L 175.327936 206.554076 
L 175.978546 207.509774 
L 176.629156 210.838494 
L 177.930377 205.918708 
L 178.580987 206.846055 
L 179.231598 211.287358 
L 179.882208 207.755606 
L 180.532818 205.473451 
L 181.183429 207.120896 
L 181.834039 203.470604 
L 182.484649 205.333171 
L 183.13526 207.727242 
L 183.78587 205.582422 
L 184.43648 206.837552 
L 185.087091 205.707076 
L 185.737701 210.384414 
L 186.388311 213.266082 
L 187.038921 209.127099 
L 187.689532 207.696832 
L 188.340142 207.790396 
L 188.990752 203.408877 
L 189.641363 210.13739 
L 190.291973 206.174418 
L 190.942583 211.203584 
L 192.243804 206.71509 
L 192.894414 206.26007 
L 193.545025 203.345039 
L 194.195635 209.155792 
L 194.846245 207.225993 
L 195.496856 208.512583 
L 196.147466 206.706986 
L 196.798076 205.884646 
L 197.448686 208.958935 
L 198.099297 206.02255 
L 198.749907 205.438739 
L 199.400517 206.260299 
L 200.051128 207.288071 
L 201.352348 207.358607 
L 202.002959 208.65464 
L 202.653569 204.272609 
L 203.304179 206.581817 
L 203.95479 204.039123 
L 204.6054 208.974796 
L 205.25601 208.04769 
L 205.906621 205.707037 
L 206.557231 207.160123 
L 207.207841 206.141542 
L 207.858451 204.897446 
L 208.509062 207.249584 
L 209.159672 204.983886 
L 209.810282 207.941485 
L 210.460893 204.648846 
L 211.111503 207.554616 
L 211.762113 207.810647 
L 212.412724 206.995071 
L 213.063334 208.746634 
L 213.713944 205.239262 
L 214.364555 208.097269 
L 215.015165 204.300307 
L 215.665775 205.957993 
L 216.316385 208.037874 
L 216.966996 207.85617 
L 217.617606 206.38434 
L 218.918827 205.37616 
L 219.569437 210.044669 
L 220.220047 204.365661 
L 220.870658 206.654523 
L 221.521268 207.950355 
L 222.171878 208.321076 
L 222.822489 205.416941 
L 223.473099 205.238986 
L 224.123709 208.678794 
L 224.77432 207.532842 
L 225.42493 208.183997 
L 226.07554 206.06851 
L 226.72615 202.659669 
L 227.376761 209.650225 
L 228.027371 208.14582 
L 228.677981 206.325065 
L 229.328592 206.161879 
L 229.979202 206.278008 
L 230.629812 203.244759 
L 231.280423 205.599 
L 231.931033 207.041113 
L 232.581643 205.210581 
L 233.232254 204.98283 
L 234.533474 209.008554 
L 235.184085 208.012952 
L 236.485305 209.272555 
L 237.135915 205.21157 
L 237.786526 207.043827 
L 238.437136 206.614772 
L 239.087746 204.733014 
L 239.738357 207.928521 
L 240.388967 204.042462 
L 241.039577 204.786399 
L 241.690188 209.605127 
L 242.340798 207.954777 
L 242.991408 204.330919 
L 243.642019 209.333049 
L 244.292629 205.205274 
L 244.943239 207.183802 
L 245.59385 206.706017 
L 246.24446 205.045502 
L 246.89507 205.071752 
L 247.54568 206.147467 
L 248.196291 208.376266 
L 248.846901 208.922112 
L 249.497511 206.003346 
L 250.148122 207.959402 
L 251.449342 207.265532 
L 252.099953 205.820971 
L 252.750563 207.403458 
L 253.401173 205.944078 
L 254.051784 208.638844 
L 254.702394 207.606772 
L 255.353004 205.994256 
L 256.003615 208.13555 
L 256.654225 208.981037 
L 257.304835 209.276483 
L 257.955445 203.75814 
L 258.606056 206.771314 
L 259.256666 204.648391 
L 259.907276 205.16648 
L 260.557887 207.819282 
L 261.208497 205.410672 
L 261.859107 205.448512 
L 262.509718 203.900185 
L 263.160328 205.921755 
L 263.810938 207.284221 
L 264.461549 207.80526 
L 265.112159 207.93814 
L 265.762769 206.382905 
L 266.413379 205.319912 
L 267.06399 206.144894 
L 267.7146 201.757403 
L 268.36521 205.859393 
L 269.015821 203.810558 
L 269.666431 203.584136 
L 270.317041 206.425692 
L 270.967652 205.140977 
L 271.618262 201.571884 
L 272.268872 206.565514 
L 272.919483 204.169138 
L 273.570093 205.428924 
L 274.220703 205.543911 
L 274.871314 205.117354 
L 275.521924 202.32108 
L 276.172534 204.892505 
L 276.823144 201.231186 
L 277.473755 203.339506 
L 278.124365 207.862447 
L 278.774975 205.636059 
L 279.425586 206.658673 
L 280.076196 203.452573 
L 280.726806 204.675806 
L 281.377417 202.504228 
L 282.028027 208.552755 
L 282.678637 201.519939 
L 283.329248 205.823572 
L 283.979858 206.732718 
L 284.630468 204.103666 
L 285.931689 207.123562 
L 286.582299 204.878061 
L 287.232909 207.596736 
L 287.88352 205.236835 
L 288.53413 206.986752 
L 289.18474 206.441823 
L 290.485961 205.875338 
L 291.136571 208.261419 
L 291.787182 207.833255 
L 292.437792 204.672507 
L 293.088402 205.27612 
L 293.739013 205.262982 
L 294.389623 204.267585 
L 295.040233 205.883286 
L 295.690844 207.087221 
L 296.341454 204.223861 
L 296.992064 206.107256 
L 297.642674 201.354404 
L 298.293285 207.255102 
L 298.943895 206.429252 
L 299.594505 204.854307 
L 300.245116 204.54635 
L 300.895726 202.759294 
L 301.546336 204.725718 
L 302.196947 205.743281 
L 302.847557 203.891387 
L 303.498167 204.821581 
L 304.148778 201.352164 
L 304.799388 206.580998 
L 305.449998 205.865225 
L 306.100608 201.316479 
L 306.751219 202.935356 
L 307.401829 206.171184 
L 308.052439 205.093122 
L 308.70305 206.510481 
L 309.35366 203.035417 
L 310.00427 209.300128 
L 310.654881 203.95166 
L 311.305491 203.451501 
L 311.956101 206.081441 
L 312.606712 205.784783 
L 313.257322 206.308749 
L 313.907932 208.394436 
L 314.558543 203.553904 
L 315.209153 205.429326 
L 315.859763 205.449093 
L 316.510373 203.240703 
L 317.160984 204.848372 
L 317.811594 205.960119 
L 318.462204 204.214233 
L 319.112815 205.640956 
L 319.763425 201.632717 
L 321.064646 206.632186 
L 321.715256 206.234682 
L 322.365866 204.927951 
L 323.016477 210.556839 
L 323.667087 207.181335 
L 324.317697 207.859658 
L 324.968308 201.549777 
L 325.618918 206.983148 
L 326.269528 209.198756 
L 326.920138 204.03784 
L 328.221359 205.52248 
L 328.871969 205.032891 
L 329.52258 206.295098 
L 330.17319 202.344805 
L 331.474411 209.117647 
L 332.125021 206.413374 
L 332.775631 202.185934 
L 333.426242 202.13613 
L 334.076852 206.24026 
L 334.727462 203.800765 
L 335.378073 206.645301 
L 336.028683 205.713231 
L 336.679293 205.399133 
L 337.329903 200.192726 
L 337.980514 200.287733 
L 338.631124 204.984324 
L 339.281734 203.854522 
L 339.932345 203.312213 
L 340.582955 206.167119 
L 341.233565 206.846762 
L 341.884176 206.436992 
L 342.534786 203.771246 
L 343.185396 201.930799 
L 343.836007 200.765388 
L 344.486617 202.6364 
L 345.137227 206.955687 
L 345.787837 204.31409 
L 346.438448 200.328968 
L 347.089058 201.790799 
L 347.739668 199.394958 
L 348.390279 205.998521 
L 349.040889 203.80563 
L 349.691499 205.405896 
L 350.34211 204.137077 
L 350.99272 205.424999 
L 351.64333 202.377673 
L 352.293941 201.953153 
L 352.944551 204.531952 
L 353.595161 202.433001 
L 354.245772 203.008798 
L 354.896382 207.007062 
L 355.546992 200.195583 
L 356.197602 202.802908 
L 356.848213 203.743488 
L 357.498823 203.033798 
L 358.149433 204.917742 
L 359.450654 203.405831 
L 360.101264 202.91237 
L 360.751875 206.817841 
L 361.402485 199.325525 
L 362.053095 200.901737 
L 362.703706 203.695979 
L 363.354316 199.563944 
L 364.004926 202.719513 
L 364.655537 206.793927 
L 365.306147 200.899737 
L 365.956757 200.286894 
L 366.607367 204.096448 
L 367.908588 201.347501 
L 368.559198 202.073761 
L 369.209809 202.366847 
L 369.860419 202.018306 
L 370.511029 202.235854 
L 371.16164 203.48889 
L 371.81225 204.043712 
L 372.46286 201.9153 
L 373.113471 206.429637 
L 373.764081 204.712049 
L 374.414691 205.725398 
L 375.065302 205.141925 
L 375.715912 203.228166 
L 376.366522 200.723143 
L 377.017132 200.469147 
L 377.667743 202.820363 
L 378.318353 206.013562 
L 378.968963 199.026768 
L 379.619574 202.615173 
L 380.270184 205.403089 
L 380.920794 204.382313 
L 381.571405 202.546539 
L 382.222015 203.145815 
L 382.872625 200.934727 
L 383.523236 202.307174 
L 384.173846 200.734985 
L 384.824456 204.499537 
L 385.475066 202.449486 
L 386.125677 199.981332 
L 386.776287 203.724274 
L 387.426897 204.294491 
L 388.077508 201.240357 
L 388.728118 205.92958 
L 389.378728 199.903851 
L 390.029339 197.59839 
L 390.679949 203.746673 
L 391.330559 203.876752 
L 391.98117 201.599535 
L 392.63178 204.574564 
L 393.28239 204.19951 
L 393.933001 208.601803 
L 394.583611 203.79701 
L 395.234221 200.733589 
L 395.884831 204.309604 
L 396.535442 204.406116 
L 397.186052 201.693338 
L 397.836662 200.85952 
L 398.487273 205.486597 
L 398.487273 205.486597 
" style="fill:none;stroke:#ff7f0e;stroke-linecap:square;stroke-width:1.5;"/>
   </g>
   <g id="patch_3">
    <path d="M 57.6 307.584 
L 57.6 41.472 
" style="fill:none;stroke:#000000;stroke-linecap:square;stroke-linejoin:miter;stroke-width:0.8;"/>
   </g>
   <g id="patch_4">
    <path d="M 414.72 307.584 
L 414.72 41.472 
" style="fill:none;stroke:#000000;stroke-linecap:square;stroke-linejoin:miter;stroke-width:0.8;"/>
   </g>
   <g id="patch_5">
    <path d="M 57.6 307.584 
L 414.72 307.584 
" style="fill:none;stroke:#000000;stroke-linecap:square;stroke-linejoin:miter;stroke-width:0.8;"/>
   </g>
   <g id="patch_6">
    <path d="M 57.6 41.472 
L 414.72 41.472 
" style="fill:none;stroke:#000000;stroke-linecap:square;stroke-linejoin:miter;stroke-width:0.8;"/>
   </g>
   <g id="text_16">
    <!-- model loss -->
    <defs>
     <path d="M 52 44.1875 
Q 55.375 50.25 60.0625 53.125 
Q 64.75 56 71.09375 56 
Q 79.640625 56 84.28125 50.015625 
Q 88.921875 44.046875 88.921875 33.015625 
L 88.921875 0 
L 79.890625 0 
L 79.890625 32.71875 
Q 79.890625 40.578125 77.09375 44.375 
Q 74.3125 48.1875 68.609375 48.1875 
Q 61.625 48.1875 57.5625 43.546875 
Q 53.515625 38.921875 53.515625 30.90625 
L 53.515625 0 
L 44.484375 0 
L 44.484375 32.71875 
Q 44.484375 40.625 41.703125 44.40625 
Q 38.921875 48.1875 33.109375 48.1875 
Q 26.21875 48.1875 22.15625 43.53125 
Q 18.109375 38.875 18.109375 30.90625 
L 18.109375 0 
L 9.078125 0 
L 9.078125 54.6875 
L 18.109375 54.6875 
L 18.109375 46.1875 
Q 21.1875 51.21875 25.484375 53.609375 
Q 29.78125 56 35.6875 56 
Q 41.65625 56 45.828125 52.96875 
Q 50 49.953125 52 44.1875 
z
" id="DejaVuSans-6d"/>
     <path d="M 45.40625 46.390625 
L 45.40625 75.984375 
L 54.390625 75.984375 
L 54.390625 0 
L 45.40625 0 
L 45.40625 8.203125 
Q 42.578125 3.328125 38.25 0.953125 
Q 33.9375 -1.421875 27.875 -1.421875 
Q 17.96875 -1.421875 11.734375 6.484375 
Q 5.515625 14.40625 5.515625 27.296875 
Q 5.515625 40.1875 11.734375 48.09375 
Q 17.96875 56 27.875 56 
Q 33.9375 56 38.25 53.625 
Q 42.578125 51.265625 45.40625 46.390625 
z
M 14.796875 27.296875 
Q 14.796875 17.390625 18.875 11.75 
Q 22.953125 6.109375 30.078125 6.109375 
Q 37.203125 6.109375 41.296875 11.75 
Q 45.40625 17.390625 45.40625 27.296875 
Q 45.40625 37.203125 41.296875 42.84375 
Q 37.203125 48.484375 30.078125 48.484375 
Q 22.953125 48.484375 18.875 42.84375 
Q 14.796875 37.203125 14.796875 27.296875 
z
" id="DejaVuSans-64"/>
     <path id="DejaVuSans-20"/>
    </defs>
    <g transform="translate(203.980312 35.472)scale(0.12 -0.12)">
     <use xlink:href="#DejaVuSans-6d"/>
     <use x="97.412109" xlink:href="#DejaVuSans-6f"/>
     <use x="158.59375" xlink:href="#DejaVuSans-64"/>
     <use x="222.070312" xlink:href="#DejaVuSans-65"/>
     <use x="283.59375" xlink:href="#DejaVuSans-6c"/>
     <use x="311.376953" xlink:href="#DejaVuSans-20"/>
     <use x="343.164062" xlink:href="#DejaVuSans-6c"/>
     <use x="370.947266" xlink:href="#DejaVuSans-6f"/>
     <use x="432.128906" xlink:href="#DejaVuSans-73"/>
     <use x="484.228516" xlink:href="#DejaVuSans-73"/>
    </g>
   </g>
   <g id="legend_1">
    <g id="patch_7">
     <path d="M 352.445 78.82825 
L 407.72 78.82825 
Q 409.72 78.82825 409.72 76.82825 
L 409.72 48.472 
Q 409.72 46.472 407.72 46.472 
L 352.445 46.472 
Q 350.445 46.472 350.445 48.472 
L 350.445 76.82825 
Q 350.445 78.82825 352.445 78.82825 
z
" style="fill:#ffffff;opacity:0.8;stroke:#cccccc;stroke-linejoin:miter;"/>
    </g>
    <g id="line2d_18">
     <path d="M 354.445 54.570437 
L 374.445 54.570437 
" style="fill:none;stroke:#1f77b4;stroke-linecap:square;stroke-width:1.5;"/>
    </g>
    <g id="line2d_19"/>
    <g id="text_17">
     <!-- train -->
     <defs>
      <path d="M 18.3125 70.21875 
L 18.3125 54.6875 
L 36.8125 54.6875 
L 36.8125 47.703125 
L 18.3125 47.703125 
L 18.3125 18.015625 
Q 18.3125 11.328125 20.140625 9.421875 
Q 21.96875 7.515625 27.59375 7.515625 
L 36.8125 7.515625 
L 36.8125 0 
L 27.59375 0 
Q 17.1875 0 13.234375 3.875 
Q 9.28125 7.765625 9.28125 18.015625 
L 9.28125 47.703125 
L 2.6875 47.703125 
L 2.6875 54.6875 
L 9.28125 54.6875 
L 9.28125 70.21875 
z
" id="DejaVuSans-74"/>
      <path d="M 41.109375 46.296875 
Q 39.59375 47.171875 37.8125 47.578125 
Q 36.03125 48 33.890625 48 
Q 26.265625 48 22.1875 43.046875 
Q 18.109375 38.09375 18.109375 28.8125 
L 18.109375 0 
L 9.078125 0 
L 9.078125 54.6875 
L 18.109375 54.6875 
L 18.109375 46.1875 
Q 20.953125 51.171875 25.484375 53.578125 
Q 30.03125 56 36.53125 56 
Q 37.453125 56 38.578125 55.875 
Q 39.703125 55.765625 41.0625 55.515625 
z
" id="DejaVuSans-72"/>
      <path d="M 34.28125 27.484375 
Q 23.390625 27.484375 19.1875 25 
Q 14.984375 22.515625 14.984375 16.5 
Q 14.984375 11.71875 18.140625 8.90625 
Q 21.296875 6.109375 26.703125 6.109375 
Q 34.1875 6.109375 38.703125 11.40625 
Q 43.21875 16.703125 43.21875 25.484375 
L 43.21875 27.484375 
z
M 52.203125 31.203125 
L 52.203125 0 
L 43.21875 0 
L 43.21875 8.296875 
Q 40.140625 3.328125 35.546875 0.953125 
Q 30.953125 -1.421875 24.3125 -1.421875 
Q 15.921875 -1.421875 10.953125 3.296875 
Q 6 8.015625 6 15.921875 
Q 6 25.140625 12.171875 29.828125 
Q 18.359375 34.515625 30.609375 34.515625 
L 43.21875 34.515625 
L 43.21875 35.40625 
Q 43.21875 41.609375 39.140625 45 
Q 35.0625 48.390625 27.6875 48.390625 
Q 23 48.390625 18.546875 47.265625 
Q 14.109375 46.140625 10.015625 43.890625 
L 10.015625 52.203125 
Q 14.9375 54.109375 19.578125 55.046875 
Q 24.21875 56 28.609375 56 
Q 40.484375 56 46.34375 49.84375 
Q 52.203125 43.703125 52.203125 31.203125 
z
" id="DejaVuSans-61"/>
      <path d="M 9.421875 54.6875 
L 18.40625 54.6875 
L 18.40625 0 
L 9.421875 0 
z
M 9.421875 75.984375 
L 18.40625 75.984375 
L 18.40625 64.59375 
L 9.421875 64.59375 
z
" id="DejaVuSans-69"/>
      <path d="M 54.890625 33.015625 
L 54.890625 0 
L 45.90625 0 
L 45.90625 32.71875 
Q 45.90625 40.484375 42.875 44.328125 
Q 39.84375 48.1875 33.796875 48.1875 
Q 26.515625 48.1875 22.3125 43.546875 
Q 18.109375 38.921875 18.109375 30.90625 
L 18.109375 0 
L 9.078125 0 
L 9.078125 54.6875 
L 18.109375 54.6875 
L 18.109375 46.1875 
Q 21.34375 51.125 25.703125 53.5625 
Q 30.078125 56 35.796875 56 
Q 45.21875 56 50.046875 50.171875 
Q 54.890625 44.34375 54.890625 33.015625 
z
" id="DejaVuSans-6e"/>
     </defs>
     <g transform="translate(382.445 58.070437)scale(0.1 -0.1)">
      <use xlink:href="#DejaVuSans-74"/>
      <use x="39.208984" xlink:href="#DejaVuSans-72"/>
      <use x="80.322266" xlink:href="#DejaVuSans-61"/>
      <use x="141.601562" xlink:href="#DejaVuSans-69"/>
      <use x="169.384766" xlink:href="#DejaVuSans-6e"/>
     </g>
    </g>
    <g id="line2d_20">
     <path d="M 354.445 69.248562 
L 374.445 69.248562 
" style="fill:none;stroke:#ff7f0e;stroke-linecap:square;stroke-width:1.5;"/>
    </g>
    <g id="line2d_21"/>
    <g id="text_18">
     <!-- test -->
     <g transform="translate(382.445 72.748562)scale(0.1 -0.1)">
      <use xlink:href="#DejaVuSans-74"/>
      <use x="39.208984" xlink:href="#DejaVuSans-65"/>
      <use x="100.732422" xlink:href="#DejaVuSans-73"/>
      <use x="152.832031" xlink:href="#DejaVuSans-74"/>
     </g>
    </g>
   </g>
  </g>
 </g>
 <defs>
  <clipPath id="pd5e3e1da58">
   <rect height="266.112" width="357.12" x="57.6" y="41.472"/>
  </clipPath>
 </defs>
</svg>
